<?xml version="1.0" standalone="no"?>
<!DOCTYPE svg PUBLIC "-//W3C//DTD SVG 20010904//EN"
 "http://www.w3.org/TR/2001/REC-SVG-20010904/DTD/svg10.dtd">
<svg version="1.0" xmlns="http://www.w3.org/2000/svg"
 width="750.000000pt" height="750.000000pt" viewBox="0 0 750.000000 750.000000"
 preserveAspectRatio="xMidYMid meet">
<metadata>
Created by potrace 1.11, written by Peter Selinger 2001-2013
</metadata>
<g transform="translate(0.000000,750.000000) scale(0.100000,-0.100000)"
fill="#000000" stroke="none">
<path d="M3515 7493 c-425 -37 -796 -125 -1150 -275 -1088 -459 -1846 -1463
-2059 -2727 -45 -264 -59 -443 -59 -741 0 -298 14 -477 59 -740 137 -815 501
-1528 1047 -2057 569 -550 1282 -866 2127 -942 149 -14 523 -14 687 0 869 71
1650 408 2212 953 394 384 659 796 835 1303 l45 133 -592 0 -592 0 -63 -133
c-332 -702 -940 -1148 -1709 -1253 -154 -21 -506 -24 -658 -5 -973 119 -1725
697 -2089 1603 -93 233 -152 463 -193 758 -24 174 -24 586 0 760 41 297 98
522 192 755 247 616 667 1078 1230 1356 257 126 550 212 860 250 150 19 504
16 658 -5 769 -105 1377 -551 1709 -1253 l63 -133 592 0 592 0 -45 133 c-212
610 -588 1136 -1096 1530 -534 414 -1210 665 -1951 726 -117 10 -555 13 -652
4z"/>
</g>
</svg>
