<?xml version="1.0" encoding="UTF-8" standalone="no"?>
<!-- Created with Inkscape (http://www.inkscape.org/) -->

<svg
   xmlns:dc="http://purl.org/dc/elements/1.1/"
   xmlns:cc="http://creativecommons.org/ns#"
   xmlns:rdf="http://www.w3.org/1999/02/22-rdf-syntax-ns#"
   xmlns:svg="http://www.w3.org/2000/svg"
   xmlns="http://www.w3.org/2000/svg"
   xmlns:sodipodi="http://sodipodi.sourceforge.net/DTD/sodipodi-0.dtd"
   xmlns:inkscape="http://www.inkscape.org/namespaces/inkscape"
   width="869.43024mm"
   height="808.87427mm"
   viewBox="0 0 869.43024 808.87427"
   version="1.1"
   id="svg8"
   inkscape:version="0.92.4 (5da689c313, 2019-01-14)"
   sodipodi:docname="drawing-1.svg">
  <defs
     id="defs2" />
  <sodipodi:namedview
     id="base"
     pagecolor="#ffffff"
     bordercolor="#666666"
     borderopacity="1.0"
     inkscape:pageopacity="0.0"
     inkscape:pageshadow="2"
     inkscape:zoom="0.22627417"
     inkscape:cx="3272.7408"
     inkscape:cy="1553.1102"
     inkscape:document-units="mm"
     inkscape:current-layer="layer1"
     showgrid="false"
     inkscape:window-width="2560"
     inkscape:window-height="1346"
     inkscape:window-x="-11"
     inkscape:window-y="-11"
     inkscape:window-maximized="1" />
  <metadata
     id="metadata5">
    <rdf:RDF>
      <cc:Work
         rdf:about="">
        <dc:format>image/svg+xml</dc:format>
        <dc:type
           rdf:resource="http://purl.org/dc/dcmitype/StillImage" />
        <dc:title></dc:title>
      </cc:Work>
    </rdf:RDF>
  </metadata>
  <g
     inkscape:label="Layer 1"
     inkscape:groupmode="layer"
     id="layer1"
     transform="translate(550.06978,388.49791)">
    <path
       style="fill:none;stroke:#000000;stroke-width:0.26458332px;stroke-linecap:butt;stroke-linejoin:miter;stroke-opacity:1"
       d="m 15.68543,40.684893 70,52.174766 -50,40.000001 30,83 -90,-51 -90,51 30,-83 -50,-40.000001 70,-57.135702 c -71.63943,0 -130,-56.454335 -130,-100.864298 0.91159,-45.745099 45.49998,-118.999999 170,-118.999999 108.8706,0 170,71.60555 170,118.999999 0,50.257209 -72.672948,105.825234 -130,105.825234 z"
       id="path831"
       inkscape:connector-curvature="0"
       sodipodi:nodetypes="ccccccccccccc" />
    <text
       xml:space="preserve"
       style="font-style:normal;font-weight:normal;font-size:10.58333302px;line-height:1.25;font-family:sans-serif;letter-spacing:0px;word-spacing:0px;fill:#000000;fill-opacity:1;stroke:none;stroke-width:0.26458332"
       x="-42.167969"
       y="-118.0651"
       id="text835"><tspan
         sodipodi:role="line"
         id="tspan833"
         x="-42.167969"
         y="-118.0651"
         style="stroke-width:0.26458332">Pure (I)</tspan></text>
    <text
       xml:space="preserve"
       style="font-style:normal;font-weight:normal;font-size:10.58333302px;line-height:1.25;font-family:sans-serif;letter-spacing:0px;word-spacing:0px;fill:#000000;fill-opacity:1;stroke:none;stroke-width:0.26458332"
       x="-94.257812"
       y="-81.684891"
       id="text839"><tspan
         sodipodi:role="line"
         id="tspan837"
         x="-94.257812"
         y="-81.684891"
         style="stroke-width:0.26458332">Body [With Localized Sensors]</tspan></text>
    <text
       xml:space="preserve"
       style="font-style:normal;font-weight:normal;font-size:10.58333302px;line-height:1.25;font-family:sans-serif;letter-spacing:0px;word-spacing:0px;fill:#000000;fill-opacity:1;stroke:none;stroke-width:0.26458332"
       x="-42.994793"
       y="-198.26694"
       id="text843"><tspan
         sodipodi:role="line"
         id="tspan841"
         x="-42.994793"
         y="-198.26694"
         style="stroke-width:0.26458332">Feelings</tspan><tspan
         sodipodi:role="line"
         x="-42.994793"
         y="-185.03777"
         style="stroke-width:0.26458332"
         id="tspan845" /></text>
    <text
       xml:space="preserve"
       style="font-style:normal;font-weight:normal;font-size:10.58333302px;line-height:1.25;font-family:sans-serif;letter-spacing:0px;word-spacing:0px;fill:#000000;fill-opacity:1;stroke:none;stroke-width:0.26458332"
       x="-157.09636"
       y="-242.08855"
       id="text849"><tspan
         sodipodi:role="line"
         id="tspan847"
         x="-157.09636"
         y="-242.08855"
         style="stroke-width:0.26458332">Appearence of physical accompaniment (expression)</tspan></text>
    <text
       xml:space="preserve"
       style="font-style:normal;font-weight:normal;font-size:10.58333302px;line-height:1.25;font-family:sans-serif;letter-spacing:0px;word-spacing:0px;fill:#000000;fill-opacity:1;stroke:none;stroke-width:0.26458332"
       x="-27.285166"
       y="-332.21225"
       id="text853"><tspan
         sodipodi:role="line"
         x="-27.285166"
         y="-332.21225"
         style="stroke-width:0.26458332"
         id="tspan855">Will</tspan></text>
    <text
       xml:space="preserve"
       style="font-style:normal;font-weight:normal;font-size:10.58333302px;line-height:1.25;font-family:sans-serif;letter-spacing:0px;word-spacing:0px;fill:#000000;fill-opacity:1;stroke:none;stroke-width:0.26458332"
       x="-550.66406"
       y="-116.41146"
       id="text861"><tspan
         sodipodi:role="line"
         id="tspan859"
         x="-550.66406"
         y="-116.41146"
         style="stroke-width:0.26458332">Other bodies</tspan><tspan
         sodipodi:role="line"
         x="-550.66406"
         y="-103.1823"
         style="stroke-width:0.26458332"
         id="tspan863" /></text>
    <path
       style="fill:none;stroke:#000000;stroke-width:0.31921631px;stroke-linecap:butt;stroke-linejoin:miter;stroke-opacity:1"
       d="M 23.944899,45.794532 108.39899,108.7427 48.07464,157.00218 84.269259,257.14062 -24.314584,195.60979 -132.89842,257.14062 -96.703806,157.00218 -157.02816,108.7427 -72.574066,39.809228 c -86.432044,0 -156.843324,-68.111426 -156.843324,-121.691473 1.09982,-55.190865 54.89515,-143.571955 205.102806,-143.571955 131.350964,0 205.102814,86.39117 205.102814,143.571955 0,60.634676 -87.67898,127.676777 -156.843331,127.676777 z"
       id="path831-4"
       inkscape:connector-curvature="0"
       sodipodi:nodetypes="ccccccccccccc" />
    <path
       style="fill:none;stroke:#000000;stroke-width:0.40990713px;stroke-linecap:butt;stroke-linejoin:miter;stroke-opacity:1"
       d="M 37.655642,54.27658 146.10352,135.1086 68.64075,197.07879 115.11843,325.66701 -24.314573,246.65499 -163.74756,325.66701 -117.26989,197.07879 -194.73266,135.1086 -86.284788,46.590818 c -110.987772,0 -201.403192,-87.462175 -201.403192,-156.264558 1.41228,-70.87086 70.49108,-184.36139 263.373407,-184.36139 168.668363,0 263.373423,110.93527 263.373423,184.36139 0,77.861251 -112.58895,163.95032 -201.403208,163.95032 z"
       id="path831-2"
       inkscape:connector-curvature="0"
       sodipodi:nodetypes="ccccccccccccc" />
    <path
       style="fill:none;stroke:#000000;stroke-width:0.53447044px;stroke-linecap:butt;stroke-linejoin:miter;stroke-opacity:1"
       d="M 56.48724,65.926566 197.89047,171.32198 96.88817,252.12376 157.48958,419.78761 -24.31458,316.76529 -206.11869,419.78761 -145.51732,252.12376 -246.51959,171.32198 -105.1164,55.90527 c -144.71494,0 -262.60594,-114.040333 -262.60594,-203.75049 1.84144,-92.40722 91.91202,-240.38545 343.40776,-240.38545 219.92359,0 343.40778,144.64646 343.40778,240.38545 0,101.521852 -146.80265,213.771786 -262.60596,213.771786 z"
       id="path831-2-7"
       inkscape:connector-curvature="0"
       sodipodi:nodetypes="ccccccccccccc" />
  </g>
</svg>
