<?xml version="1.0" encoding="UTF-8" standalone="no"?>
<!-- Created with Inkscape (http://www.inkscape.org/) -->

<svg
   xmlns:dc="http://purl.org/dc/elements/1.1/"
   xmlns:cc="http://creativecommons.org/ns#"
   xmlns:rdf="http://www.w3.org/1999/02/22-rdf-syntax-ns#"
   xmlns:svg="http://www.w3.org/2000/svg"
   xmlns="http://www.w3.org/2000/svg"
   xmlns:xlink="http://www.w3.org/1999/xlink"
   xmlns:sodipodi="http://sodipodi.sourceforge.net/DTD/sodipodi-0.dtd"
   xmlns:inkscape="http://www.inkscape.org/namespaces/inkscape"
   width="1440"
   height="2960"
   viewBox="0 0 380.99999 783.16669"
   version="1.1"
   id="svg8"
   inkscape:version="0.92.4 (5da689c313, 2019-01-14)"
   sodipodi:docname="drawing-3.svg"
   inkscape:export-filename="C:\Users\luke\Pictures\bridget.png"
   inkscape:export-xdpi="96"
   inkscape:export-ydpi="96">
  <defs
     id="defs2">
    <linearGradient
       inkscape:collect="always"
       id="linearGradient894">
      <stop
         style="stop-color:#55afbc;stop-opacity:1"
         offset="0"
         id="stop890" />
      <stop
         style="stop-color:#ffe1e1;stop-opacity:1"
         offset="1"
         id="stop892" />
    </linearGradient>
    <linearGradient
       inkscape:collect="always"
       xlink:href="#linearGradient894"
       id="linearGradient898"
       x1="109.05152"
       y1="44.200485"
       x2="106.53556"
       y2="-212.96774"
       gradientUnits="userSpaceOnUse" />
  </defs>
  <sodipodi:namedview
     id="base"
     pagecolor="#ffffff"
     bordercolor="#666666"
     borderopacity="1.0"
     inkscape:pageopacity="0.0"
     inkscape:pageshadow="2"
     inkscape:zoom="0.24748737"
     inkscape:cx="290.44904"
     inkscape:cy="1496.4778"
     inkscape:document-units="mm"
     inkscape:current-layer="layer1"
     showgrid="false"
     units="px"
     inkscape:window-width="1920"
     inkscape:window-height="1001"
     inkscape:window-x="-9"
     inkscape:window-y="-9"
     inkscape:window-maximized="1" />
  <metadata
     id="metadata5">
    <rdf:RDF>
      <cc:Work
         rdf:about="">
        <dc:format>image/svg+xml</dc:format>
        <dc:type
           rdf:resource="http://purl.org/dc/dcmitype/StillImage" />
        <dc:title></dc:title>
      </cc:Work>
    </rdf:RDF>
  </metadata>
  <g
     inkscape:label="Layer 1"
     inkscape:groupmode="layer"
     id="layer1"
     transform="translate(0,486.16668)">
    <rect
       style="opacity:1;fill:url(#linearGradient898);fill-opacity:1;stroke:none;stroke-width:0.27708566;stroke-opacity:1"
       id="rect888"
       width="381"
       height="783.16669"
       x="0"
       y="-486.16666" />
    <g
       id="g886"
       transform="matrix(1.0241623,0.02138812,-0.02138812,1.0241623,108.75463,-10.702744)">
      <path
         style="opacity:1;fill:#f8c1ad;fill-opacity:1;stroke:none;stroke-width:0.2704432;stroke-opacity:0.29850745"
         d="m 80.3255,-147.78349 c 35.94408,0 71.88816,0 107.83224,0 0,32.93435 0,65.86871 0,98.803067 -35.94408,0 -71.88816,0 -107.83224,0 0,-32.934357 0,-65.868717 0,-98.803067 z"
         id="rect833"
         inkscape:connector-curvature="0" />
      <path
         style="fill:#f6efcb;fill-opacity:1;stroke:none;stroke-width:0.26458332px;stroke-linecap:butt;stroke-linejoin:miter;stroke-opacity:1"
         d="m 42.996985,-182.28111 c 8.028639,-4.14962 15.969216,-6.72432 23.383942,0.10543 7.606179,4.78114 17.89486,7.55742 23.844661,13.57651 4.455306,25.56843 10.716982,51.00711 14.058762,76.655532 0.98488,8.017792 -3.48988,13.437471 5.51579,18.133205 6.52073,5.643404 13.04147,11.286809 19.56221,16.930213 -0.0896,-9.642184 9.97292,-13.617062 12.7567,-22.300598 8.10302,-7.372872 16.38292,-15.23891 21.31626,-25.124382 8.53677,5.40913 1.27071,16.059935 1.71531,24.153171 -4.71712,30.742567 -7.93942,61.855775 -13.59795,92.364922 -6.60932,18.325857 -13.21865,36.651713 -19.82797,54.97757 -13.32366,2.393844 -26.64732,4.787689 -39.970982,7.181533 C 84.855852,56.853063 76.611816,39.628661 70.533852,21.93034 c -0.830637,-11.637472 0.905605,-23.7791713 -4.86042,-34.368178 -6.862256,-26.774376 -7.260426,-54.905915 -5.037489,-82.219641 -1.623955,-11.575171 -4.278364,-22.995551 -6.301867,-34.510701 -8.528712,3.01094 -14.854207,-8.07804 -12.557801,-15.57322 -5.018905,-4.05362 -3.16402,-12.32698 -5.322728,-17.91599 -2.205179,-6.13297 0.02454,-16.07428 6.543438,-19.62372 z"
         id="path829"
         inkscape:connector-curvature="0" />
      <path
         style="fill:#f6efcb;fill-opacity:1;stroke:none;stroke-width:0.26458332px;stroke-linecap:butt;stroke-linejoin:miter;stroke-opacity:1"
         d="m 184.95051,-239.9445 c 8.47265,18.41154 6.89645,39.49716 11.91483,58.92672 2.06506,15.4389 4.54098,31.00985 10.26854,45.44203 -0.48643,7.30068 6.29108,17.77998 -4.62504,17.64023 -7.23929,3.02792 -12.6091,-10.41856 -19.09094,-14.06561 -7.30403,-10.19434 -17.46444,1.98167 -25.72888,4.30983 -6.53713,5.99798 -18.48991,-1.00865 -22.00714,5.90975 -3.91645,6.24623 -5.66048,21.42139 -13.78802,9.87099 -7.93126,-5.43184 -11.27013,-15.02657 -16.99057,-22.46247 12.38349,-46.10399 24.76697,-92.20799 37.15046,-138.31198 8.99807,-2.93996 17.99614,-5.87993 26.99421,-8.81989 7.9202,12.70437 11.1696,27.51854 15.90255,41.5604 z"
         id="path827"
         inkscape:connector-curvature="0" />
      <path
         style="fill:#a05f5b;fill-opacity:1;stroke:none;stroke-width:0.26458332px;stroke-linecap:butt;stroke-linejoin:miter;stroke-opacity:1"
         d="m 140.22916,-242.18305 c -9.37785,-4.25041 -19.49816,-3.22678 -27.81506,2.8593 -10.38305,5.13551 -16.644247,15.39374 -24.818119,23.12655 -7.621396,-6.58593 -17.946458,-7.91456 -26.363839,-13.04017 -4.274645,17.29074 -6.444805,36.97547 5.291666,51.97173 5.673313,11.54112 18.219767,19.9323 17.29241,34.20684 2.71277,16.01473 9.393212,30.79159 16.207422,45.408574 5.56908,14.615308 0.31952,5.895963 9.11698,2.310933 5.15362,-1.86529 5.00448,-6.184867 10.11087,-12.189747 7.83155,4.8041 11.54221,5.99694 6.38211,-5.38177 -3.71838,-8.52215 -11.31806,-16.41761 -7.00427,-26.27593 4.26245,-15.72462 10.55272,-30.82035 11.22613,-47.27462 3.46539,-18.49005 5.45032,-37.81678 10.3737,-55.72169 z"
         id="path5080"
         inkscape:connector-curvature="0" />
      <path
         style="fill:#a05f5b;fill-opacity:1;stroke:none;stroke-width:0.26458332px;stroke-linecap:butt;stroke-linejoin:miter;stroke-opacity:1"
         d="m 205.263,-110.51923 c 3.87379,-12.07224 -8.97561,-7.9636 -14.64299,-14.39967 -2.92109,-4.23343 -10.76441,-17.28412 -12.05158,-6.39303 -3.23115,10.32181 -10.01541,19.53967 -15.17137,28.42209 -3.73882,35.315495 -13.32751,70.034681 -14.40974,105.6682457 0.0128,8.8554333 -14.63771,6.3005779 -13.75111,16.2169703 1.06693,15.35409 -14.01485,1.256678 -11.94935,11.652764 0.26321,8.600649 2.97215,17.355203 -2.94874,24.806994 -3.256,14.042324 -10.03893,-1.828652 -14.93768,-6.829606 C 90.843833,33.700201 80.25045,15.543341 69.623712,-2.2750696 64.885293,10.09897 66.505605,23.671444 61.561856,35.822868 c -1.408307,31.829616 0.854766,64.295832 -3.977207,95.628682 2.409986,20.45784 5.046485,41.35086 2.41867,61.92093 2.555859,7.42429 -2.143853,19.58087 5.732199,23.47611 9.860106,-0.49548 4.438418,11.38729 7.99732,17.7829 2.046829,8.60969 -2.738881,20.88139 6.998418,25.36926 5.441978,4.93197 16.858882,11.17509 21.507054,10.06471 -3.339598,-8.55133 1.10157,-12.80004 4.87204,-18.9365 4.8227,5.26661 14.04511,4.5605 21.57993,4.97879 1.19976,7.84811 -3.6245,18.37776 1.36786,24.53762 8.57437,3.67762 19.47228,2.71177 28.99231,4.10515 17.7045,0.0866 36.39578,1.58716 53.02792,-5.39034 -2.51693,-7.29681 -4.5503,-18.80712 7.26198,-16.08837 11.09438,-1.96381 24.37407,3.71471 32.54393,-6.37681 5.67563,-5.59968 16.61455,-12.69362 9.97604,-21.54033 0.93109,-7.48495 -0.49562,-16.00829 -2.81187,-24.03168 -5.68762,-29.57362 -10.86696,-59.25128 -17.20204,-88.71634 C 234.08113,79.350739 223.60932,36.584061 213.72964,-6.1606279 209.60252,-35.9804 208.68711,-66.075965 208.45959,-96.104854 c -0.90034,-4.865916 0.25408,-10.409866 -3.19659,-14.414376 z"
         id="path5082"
         inkscape:connector-curvature="0" />
      <path
         style="fill:#715749;fill-opacity:1;stroke:none;stroke-width:0.26458332px;stroke-linecap:butt;stroke-linejoin:miter;stroke-opacity:1"
         d="m 156.41949,-287.21779 c -22.89585,15.78228 -45.41466,15.23925 -67.552372,-1.80407 -8.367871,-4.74158 -13.984302,-23.18377 -19.160161,-3.79339 -11.598255,12.17121 -0.186027,-19.44782 -10.376197,-24.70822 5.092393,-18.99989 9.378531,-36.46662 14.072592,-54.61152 8.275587,-16.0317 49.889368,-17.52882 44.321618,-6.30211 22.3351,2.06204 26.11119,33.55023 28.24619,47.97531 6.9346,13.38529 2.63222,22.55287 -3.4909,34.28389 4.91891,2.1744 8.09649,10.59392 13.93923,8.96011 z"
         id="path5090"
         inkscape:connector-curvature="0" />
      <path
         style="fill:#f8c1ad;fill-opacity:1;stroke:none;stroke-width:0.26458332px;stroke-linecap:butt;stroke-linejoin:miter;stroke-opacity:1"
         d="m 140.22916,-242.18305 c -9.34527,-4.44785 -19.37768,-3.08441 -27.63606,2.89297 -10.59448,4.86858 -16.768235,15.37621 -24.997121,23.09288 -7.621394,-6.58593 -17.946457,-7.91456 -26.363837,-13.04017 -3.661244,13.94241 -4.417939,28.54661 1.260942,42.07722 1.066783,4.89343 12.625051,19.85264 7.599422,17.63425 -7.547514,-6.72962 -17.313926,-10.669 -27.095522,-12.75521 -0.191058,-21.93647 -1.826881,-44.71371 5.311983,-65.7817 8.901345,-11.81317 29.664318,-9.07001 35.814116,-24.02085 -1.078498,-7.17206 -0.301072,-16.36928 -4.768375,-21.94567 -12.120652,-12.28016 -10.686838,-31.43779 -7.654287,-46.85526 1.745066,-11.66458 3.631936,-30.93388 19.350904,-30.50344 10.685845,-0.15769 20.878145,5.68746 29.654265,11.27248 5.15611,10.07851 3.33297,21.90661 5.78124,32.68492 0.0224,9.07312 -3.50775,17.68964 -7.58531,25.57984 -1.60514,4.15202 -5.45237,10.94757 0.20046,15.13414 5.84857,0.16054 3.64766,13.09597 13.0628,3.80859 4.03306,-5.1938 15.06599,1.78657 21.21452,-3.70837 4.44736,-2.16035 19.21987,1.76044 13.40325,6.81059 -10.32517,11.55564 -23.16576,21.60529 -26.55339,37.62279 z"
         id="path5088"
         inkscape:connector-curvature="0" />
      <path
         style="fill:#f8c1ad;fill-opacity:1;stroke:none;stroke-width:0.26458332px;stroke-linecap:butt;stroke-linejoin:miter;stroke-opacity:1"
         d="m 127.94494,-58.486618 c 5.08091,-11.275655 3.44664,8.33125 -0.0231,11.844813 -4.17455,5.1183 -9.41323,7.612 -17.40541,4.973959 C 93.143898,-42.534822 87.529081,-61.070004 74.947202,-69.756784 66.549025,-79.897203 64.482588,-94.24141 56.527503,-105.0068 c -4.661262,-10.91963 -11.197674,-24.25656 -7.313096,-35.80704 6.75456,-10.21888 10.990928,2.10703 16.903235,6.18109 10.753915,14.5447 14.721937,33.50946 23.106279,49.473806 4.767665,6.653063 15.029459,2.284062 19.041729,9.266833 6.22367,5.695116 13.14786,11.49575 19.67929,17.405493 z"
         id="path831"
         inkscape:connector-curvature="0" />
      <g
         id="g869">
        <path
           style="fill:#f1c0b4;fill-opacity:1;stroke:none;stroke-width:0.26458332px;stroke-linecap:butt;stroke-linejoin:miter;stroke-opacity:1"
           d="m 143.08761,-86.078876 c 0.30997,5.824002 0.49774,11.473561 -5.79044,16.031019 -5.09603,5.387089 -16.22728,6.594122 -21.54196,0.694404 2.75834,-9.125503 1.53773,-16.92177 -9.58962,-16.536458 -5.80433,-3.902228 -0.4183,-11.3732 6.52463,-9.828906 4.32721,-2.117297 5.81983,-18.030603 10.72858,-8.605143 6.57413,1.83703 13.09594,3.37683 18.8354,8.571378 -6.57594,5.214339 -1.96503,3.956152 0.83341,9.673706 z"
           id="path843"
           inkscape:connector-curvature="0" />
        <path
           style="fill:#475336;fill-opacity:1;stroke:none;stroke-width:0.26458332px;stroke-linecap:butt;stroke-linejoin:miter;stroke-opacity:1"
           d="m 129.88207,-98.575729 c -6.12655,-2.853161 3.37692,-21.027661 3.35454,-6.968941 3.90671,-2.50749 11.01161,-10.84193 5.7075,1.45866 -6.13106,8.703652 10.11637,-0.58019 11.2778,-5.14389 -2.38219,5.2952 -4.06019,14.790495 -9.33129,16.182104 -2.01863,5.345939 -2.3616,-10.646124 -9.89825,-6.850829 l -0.91024,1.084524 z"
           id="path835"
           inkscape:connector-curvature="0" />
        <path
           style="fill:#475336;fill-opacity:1;stroke:none;stroke-width:0.26458332px;stroke-linecap:butt;stroke-linejoin:miter;stroke-opacity:1"
           d="m 140.20554,-90.378355 c 0.942,10.218774 19.56283,-3.458453 6.96645,0.09595 -2.72581,0.900787 -5.70921,-2.957288 -6.96645,-0.09595 z"
           id="path837"
           inkscape:connector-curvature="0" />
        <path
           style="fill:#475336;fill-opacity:1;stroke:none;stroke-width:0.26458332px;stroke-linecap:butt;stroke-linejoin:miter;stroke-opacity:1"
           d="m 130.73251,-75.920781 c 6.11715,8.909007 1.7772,9.859257 -3.6767,15.392906 -0.88839,-6.095676 5.03223,-8.113553 3.6767,-15.392906 z"
           id="path839"
           inkscape:connector-curvature="0" />
        <path
           style="fill:#475336;fill-opacity:1;stroke:none;stroke-width:0.26458332px;stroke-linecap:butt;stroke-linejoin:miter;stroke-opacity:1"
           d="m 119.58222,-70.865335 c -1.9396,7.389611 -6.21745,-0.742438 0,0 z"
           id="path841"
           inkscape:connector-curvature="0" />
        <path
           style="fill:#f7f6c0;fill-opacity:1;stroke:none;stroke-width:0.26458332px;stroke-linecap:butt;stroke-linejoin:miter;stroke-opacity:1"
           d="m 122.1808,-93.449427 c 1.18733,-12.035883 15.44658,-3.010316 7.56879,4.599191 1.98181,3.927543 4.58428,12.284798 -2.24532,12.691835 -5.37901,0.239739 -8.14385,10.495574 -13.29298,2.888066 -4.9539,-4.153693 -7.053,-4.719168 -8.5563,-11.323756 7.04886,-1.5045 1.90462,-11.231784 11.05833,-12.478145 0.70081,2.242305 3.37719,4.29886 5.46748,3.622809 z"
           id="path853"
           inkscape:connector-curvature="0" />
      </g>
    </g>
  </g>
</svg>
