<?xml version="1.0" encoding="UTF-8" standalone="no"?>
<!-- Created with Inkscape (http://www.inkscape.org/) -->

<svg
   xmlns:dc="http://purl.org/dc/elements/1.1/"
   xmlns:cc="http://creativecommons.org/ns#"
   xmlns:rdf="http://www.w3.org/1999/02/22-rdf-syntax-ns#"
   xmlns:svg="http://www.w3.org/2000/svg"
   xmlns="http://www.w3.org/2000/svg"
   xmlns:sodipodi="http://sodipodi.sourceforge.net/DTD/sodipodi-0.dtd"
   xmlns:inkscape="http://www.inkscape.org/namespaces/inkscape"
   sodipodi:docname="page1_bottom.svg"
   inkscape:version="0.92.4 5da689c313, 2019-01-14"
   id="svg848"
   version="1.1"
   viewBox="0 0 1280.0164 488.07059"
   height="488.07059mm"
   width="1280.0164mm">
  <defs
     id="defs842" />
  <sodipodi:namedview
     id="base"
     pagecolor="#ffffff"
     bordercolor="#666666"
     borderopacity="1.0"
     inkscape:pageopacity="0.0"
     inkscape:pageshadow="2"
     inkscape:zoom="0.25"
     inkscape:cx="2700.3781"
     inkscape:cy="1060.8685"
     inkscape:document-units="mm"
     inkscape:current-layer="layer1"
     showgrid="false"
     inkscape:window-width="2528"
     inkscape:window-height="1370"
     inkscape:window-x="16"
     inkscape:window-y="54"
     inkscape:window-maximized="0" />
  <metadata
     id="metadata845">
    <rdf:RDF>
      <cc:Work
         rdf:about="">
        <dc:format>image/svg+xml</dc:format>
        <dc:type
           rdf:resource="http://purl.org/dc/dcmitype/StillImage" />
        <dc:title />
      </cc:Work>
    </rdf:RDF>
  </metadata>
  <g
     inkscape:label="Layer 1"
     inkscape:groupmode="layer"
     id="layer1"
     transform="translate(681.98569,-194.81618)">
    <path
       style="fill:#bcc8ce;fill-opacity:1;stroke:none;stroke-width:0.26458332px;stroke-linecap:butt;stroke-linejoin:miter;stroke-opacity:1"
       d="m -248.5819,287.14765 c -8.15258,-6.60002 -17.22025,-11.60222 -26.9891,-15.38012 -4.83273,-2.99901 -10.05759,-3.83001 -15.61955,-3.50291 -10.98106,-2.06491 -22.20025,-2.39552 -32.842,-6.13874 -9.28496,0.0417 -18.62014,-0.0858 -27.79299,-2.11381 -23.448,-1.07477 -47.4753,0.93756 -70.25687,-5.93739 -8.45379,0.8458 -16.29863,-3.28607 -24.81543,-2.50509 -11.88852,-1.23671 -23.74255,0.36144 -35.64187,-0.40528 -13.1569,5.37917 -26.57947,9.98001 -40.28281,13.75834 -4.38225,-7.29755 -14.04601,-2.61852 -20.93003,-2.91058 -11.91418,1.40191 -23.17101,-4.54147 -34.37773,-7.79337 -11.15739,-4.94232 -23.32441,-10.27589 -35.74946,-6.91983 -7.99279,1.40177 -16.14536,1.69304 -24.0884,0.2469 -12.10214,-0.95077 -23.49294,4.38665 -35.412,4.57398 -6.72582,-2.59568 -8.60555,1.32726 -8.60555,1.32726 v 16.96771 l 288.9413,65.21787 c 48.15416,-16.16165 96.30833,-32.32329 144.46249,-48.48494 z"
       id="path1630"
       inkscape:connector-curvature="0"
       sodipodi:nodetypes="cccccccccccccccccc" />
    <path
       style="fill:#9db4c4;fill-opacity:1;stroke:none;stroke-width:0.26458332px;stroke-linecap:butt;stroke-linejoin:miter;stroke-opacity:1"
       d="m -612.09177,270.3289 c 8.98229,-1.95476 17.84154,-4.84551 26.90148,-6.20958 10.42337,0.0316 20.90199,-0.97772 31.28946,-0.2699 6.29415,0.11681 11.94826,2.6634 17.63057,5.10293 4.8529,1.7917 9.54181,4.64291 14.42384,5.93987 7.17018,-1.55649 14.30734,-3.50279 21.71375,-2.7626 7.65907,0.40134 15.43662,0.012 22.75232,2.70474 11.25795,2.63165 22.89636,2.81957 34.41673,2.88454 7.36271,-1.79086 14.45703,-5.44975 22.20149,-4.58367 8.17644,-0.29037 15.92595,3.08094 23.89653,4.5361 9.02959,2.35933 18.31059,4.0458 27.18506,6.82024 6.22367,3.23038 12.44733,6.46076 18.671,9.69114 -51.07521,17.64869 -102.15041,35.29739 -153.22562,52.94608 -35.9522,-25.59996 -71.90441,-51.19993 -107.85661,-76.79989 z"
       id="path1628"
       inkscape:connector-curvature="0" />
    <path
       style="fill:#9fb4b1;fill-opacity:1;stroke:none;stroke-width:0.26458332px;stroke-linecap:butt;stroke-linejoin:miter;stroke-opacity:1"
       d="m -681.96939,305.23181 -0.0163,-48.97427 c 8.30894,0.15273 16.52126,0.005 24.75742,1.28859 13.45509,1.37338 26.6215,4.97597 40.15864,5.61251 7.8623,0.66 15.77683,1.22114 23.56824,2.37214 9.78291,2.72971 19.6668,5.17736 29.38693,8.08242 11.43182,5.22101 22.9975,10.19545 34.34561,15.57062 3.63836,2.34194 7.27672,4.68387 10.91508,7.02581 -33.99896,9.21632 -67.99791,18.43263 -101.99687,27.64895 -20.05063,-6.20892 -41.06812,-12.41785 -61.11875,-18.62677 z"
       id="path1626"
       inkscape:connector-curvature="0"
       sodipodi:nodetypes="cccccccccc" />
    <path
       style="fill:#49776d;fill-opacity:1;stroke:none;stroke-width:0.26458332px;stroke-linecap:butt;stroke-linejoin:miter;stroke-opacity:1"
       d="m -545.04752,293.69608 c 9.57679,-0.72142 19.13527,-2.20398 28.7371,-2.2822 6.98582,0.0184 13.73784,2.0576 20.53317,3.43389 2.97552,0.75523 5.9043,2.63371 8.96962,1.23058 2.78511,-1.10403 5.89719,-0.20897 8.45723,-1.88309 2.55206,-1.23105 5.07018,-2.62969 7.99907,-1.99973 2.6967,0.34667 4.96899,-1.56957 7.45694,-2.3359 10.30791,3.79263 20.58578,7.78104 31.22083,10.58333 8.23918,-1.70095 16.43311,-3.69494 24.58622,-5.69452 5.05752,0.10759 10.07243,-0.22209 15.00495,-1.39716 2.9063,-0.17042 5.62691,1.81771 8.45728,2.52997 2.78505,1.03793 5.5363,2.1651 8.3078,3.23879 -15.9191,12.83229 -31.83819,25.66459 -47.75729,38.49688 -44.84687,-6.21771 -89.69375,-12.43542 -134.54062,-18.65313 4.18923,-8.42257 8.37847,-16.84514 12.5677,-25.26771 z"
       id="path1624"
       inkscape:connector-curvature="0" />
    <path
       style="fill:#bcc8ce;fill-opacity:1;stroke:none;stroke-width:0.26458332px;stroke-linecap:butt;stroke-linejoin:miter;stroke-opacity:1"
       d="m -55.362669,251.10552 c 4.137614,-2.08726 8.21393,-4.32563 12.389784,-6.31862 1.248393,-0.39011 2.48392,-0.91834 3.804622,-0.53226 2.238498,0.41889 4.543065,-0.26443 6.76262,-0.0101 1.489715,0.52024 2.960679,1.14802 4.574593,0.95592 1.980851,-0.14742 3.857746,-1.06254 5.796552,-1.52046 1.752626,-0.46061 3.348306,-1.35297 5.025008,-2.02245 0.96631,0.24039 1.974154,1.37952 2.890076,0.52958 2.200712,-1.12775 4.2380381,-2.65969 6.7299488,-3.06708 2.5620803,-0.58612 5.0498821,-1.61371 7.66567457,-1.88058 2.68964383,-0.15977 5.38480433,-0.55459 8.05827583,-0.0253 3.5667618,0.39733 7.1452378,0.72434 10.6239338,1.65024 2.100849,0.50747 4.317536,0.69297 6.157931,1.92439 1.627672,0.57165 1.141321,0.87383 -0.318837,1.05187 -22.6508835,5.0995 -45.301767,10.19899 -67.952651,15.29848 -4.069177,-2.01121 -8.138354,-4.02242 -12.207531,-6.03363 z"
       id="path1585"
       inkscape:connector-curvature="0" />
    <path
       style="fill:#a8b2b9;fill-opacity:1;stroke:none;stroke-width:0.26458332px;stroke-linecap:butt;stroke-linejoin:miter;stroke-opacity:1"
       d="m -201.38684,275.2414 c 5.53739,-2.36755 11.06747,-5.19004 17.23163,-5.2622 2.47168,0.0538 5.00776,0.95281 7.25815,-0.53928 3.23729,-1.4233 6.75723,-2.05887 9.87183,-3.73566 2.10042,-0.67301 4.32283,-0.33983 6.18462,-1.71633 3.70019,-1.2604 7.55553,0.1839 11.35148,-0.15568 2.52216,0.31286 5.13369,0.59603 7.54234,-0.29863 2.95056,0.17802 5.79077,-0.0307 8.62577,-0.90185 2.81168,0.0971 5.37117,-1.43812 8.24382,-1.23623 1.87082,0.046 3.54833,-1.06527 5.4466,-0.62357 2.09161,-1.87691 4.91274,-0.77372 7.32189,-1.83751 2.99184,-1.36374 6.05828,-2.34081 9.40897,-2.58803 3.661549,-1.20695 7.363444,-2.27997 11.218921,-2.7423 3.39414,-0.874 6.942571,-0.73196 10.357513,-1.0958 3.85832,-1.93613 8.093978,-3.22098 12.317052,-3.97481 4.952582,0.32706 9.392917,-2.39211 14.148345,-3.1108 2.535708,-0.40893 4.185073,2.03269 6.66934,2.24162 4.20075,1.28726 7.910753,3.70807 12.017478,5.23627 -19.430338,9.93841 -38.860677,19.87683 -58.291015,29.81524 -35.641574,-2.49148 -71.283154,-4.98297 -106.924734,-7.47445 z"
       id="path1583"
       inkscape:connector-curvature="0" />
    <path
       style="fill:#9fb4b1;fill-opacity:1;stroke:none;stroke-width:0.26458332px;stroke-linecap:butt;stroke-linejoin:miter;stroke-opacity:1"
       d="m -177.60742,275.969 c 2.81532,-1.24894 5.48848,-2.92254 8.39523,-3.89834 4.56622,-1.1732 9.22343,0.37247 13.84763,-0.0425 3.7349,0.0208 7.48019,-0.46196 11.16638,-0.91124 6.79377,-2.94973 13.56435,-5.95043 20.23503,-9.17079 6.07061,-0.12799 12.12961,0.23218 18.19011,0.52917 2.33489,-0.61455 4.62868,-1.4487 6.903571,-2.18281 3.001592,-0.0562 6.000795,-0.0861 8.927637,0.68168 2.048447,0.24748 4.063873,1.06086 6.076031,1.23222 1.349172,-0.51913 2.697722,-1.04882 4.114063,-0.42823 1.434826,0.8227 2.807442,1.88928 3.315198,3.5509 2.21561,4.45066 4.43122,8.90131 6.64683,13.35197 -32.08073,3.24115 -64.16146,6.48229 -96.24219,9.72344 -3.85851,-4.14517 -7.71701,-8.29034 -11.57552,-12.43551 z"
       id="path1579"
       inkscape:connector-curvature="0" />
    <path
       style="fill:#bcc8ce;fill-opacity:1;stroke:none;stroke-width:0.26458332px;stroke-linecap:butt;stroke-linejoin:miter;stroke-opacity:1"
       d="m 44.963625,243.29457 c 3.630742,-2.0869 7.163872,-4.4756 10.855543,-6.37411 4.959379,-0.552 10.003577,-0.59537 14.906208,-1.48766 3.073479,-0.68169 6.092845,-1.96837 9.285089,-1.32223 6.440311,0.25572 12.823328,1.06722 19.189459,2.04251 2.253866,-0.0684 4.199846,1.59397 6.351706,1.61854 7.49778,-1.35424 14.93914,-3.09763 22.56162,-3.59172 9.74097,-0.93858 19.45427,-2.26909 29.25282,-2.40787 6.20866,-0.24315 12.42898,-1.41911 18.62978,-0.52129 -0.45993,4.41997 -0.91985,8.83994 -1.37978,13.25991 -43.21748,-0.40536 -86.434963,-0.81072 -129.652445,-1.21608 z"
       id="path1518"
       inkscape:connector-curvature="0" />
    <path
       style="fill:#9db4c4;fill-opacity:1;stroke:none;stroke-width:0.26458332px;stroke-linecap:butt;stroke-linejoin:miter;stroke-opacity:1"
       d="m -121.31731,275.43983 21.03437,-9.3927 20.372917,-3.175 9.657292,-1.45521 7.276042,-1.5875 8.202083,-1.19063 7.540625,-1.32291 6.614583,-4.36563 8.069791,-2.51354 11.641667,-0.52917 24.870833,-4.89479 13.361458,-2.77812 11.641667,-3.04271 8.334375,-1.19063 24.077083,0.26459 18.123958,0.79375 28.323986,2.73825 17.71351,2.42112 37.04167,16.53646 -25.13542,29.76562 z"
       id="path1516"
       inkscape:connector-curvature="0" />
    <path
       style="fill:#406a67;fill-opacity:1;stroke:none;stroke-width:0.26458332px;stroke-linecap:butt;stroke-linejoin:miter;stroke-opacity:1"
       d="m 205.20506,248.15889 c 11.97367,36.17047 23.94735,72.34095 35.92102,108.51142 -129.2159,46.64744 -258.431799,93.29489 -387.6477,139.94233 -113.18865,-54.47399 -226.37729,-108.94797 -339.56594,-163.42196 20.05146,-14.61886 43.63428,-37.97946 70.4601,-27.39229 21.51567,-8.64656 44.62836,-7.33102 65.8744,-16.40083 27.89855,-6.86785 57.50832,-16.14161 86.37947,-10.44347 29.48323,11.47446 56.78028,-7.71576 86.00196,-6.20455 26.04077,6.49537 51.88483,2.86478 77.824111,-2.04416 24.163818,-4.70369 49.659558,3.87488 72.958588,-7.56451 33.7149322,-2.39515 67.967012,-1.83518 101.899547,-2.08611 33.986654,0.0675 67.637944,6.44739 101.607064,6.26079 9.42913,-6.38555 18.85825,-12.77111 28.28738,-19.15666 z"
       id="path1514"
       inkscape:connector-curvature="0" />
    <rect
       style="opacity:1;fill:#0f2f2b;fill-opacity:1;stroke:none;stroke-width:1.06500006;stroke-linecap:square;stroke-linejoin:round;stroke-miterlimit:4;stroke-dasharray:none;stroke-opacity:1;paint-order:stroke markers fill"
       id="rect1478"
       width="191.67644"
       height="93.386017"
       x="406.35422"
       y="589.50073"
       rx="4.3986979"
       ry="0.099220335" />
    <path
       style="fill:#49776d;fill-opacity:1;stroke:none;stroke-width:0.26458332px;stroke-linecap:butt;stroke-linejoin:miter;stroke-opacity:1"
       d="m -163.37946,453.10754 c 61.5973,-17.26432 123.091662,-35.32067 182.59551,-58.7874 61.818648,-19.84935 112.99512,-59.63768 167.24011,-93.68532 23.93816,-32.72299 58.25828,-55.15012 99.75456,-40.4428 61.78198,4.92619 123.30076,14.7284 182.14392,34.60939 44.12761,12.28734 85.54835,24.57469 129.67597,36.86204 V 613.4447 c -34.08502,22.35172 -77.1959,18.71875 -108.53812,46.71896 -35.8025,28.31293 -76.27135,6.91635 -112.95049,-5.16576 C 264.84984,621.12745 151.92505,590.85138 41.527618,553.00575 -27.127422,519.79442 -94.724419,486.31887 -163.37946,453.10754 Z"
       id="path1472"
       inkscape:connector-curvature="0"
       sodipodi:nodetypes="ccccccccccc" />
    <path
       style="fill:#9fb4b1;fill-opacity:1;stroke:none;stroke-width:0.26458332px;stroke-linecap:butt;stroke-linejoin:miter;stroke-opacity:1"
       d="m 203.24063,267.42902 c -2.01565,1.94685 -3.32476,5.2956 -6.63977,4.6643 -6.31314,0.39185 -12.59318,1.01153 -18.7795,2.27742 -14.49928,1.5054 -28.9301,-1.49286 -43.38229,-1.98388 -13.37243,-0.0603 -26.822,0.27993 -40.13396,-0.79518 -10.693771,-2.68013 -21.325609,-5.85317 -32.02795,-8.34002 -15.112179,0.91526 -30.180742,2.66657 -45.341141,2.38194 -8.7494463,-0.13388 -17.59366583,0.99455 -26.1995813,-1.05106 -4.7179057,-0.76615 -9.4358107,-1.53231 -14.1537167,-2.29846 22.95261845,-6.27537 45.861573,-12.93307 68.841482,-18.96949 9.76234,0.60395 19.611158,0.48884 29.317905,1.55504 11.465924,2.35877 23.084718,4.09976 34.188022,7.92394 7.99509,2.30857 15.85513,5.22791 24.21196,5.90059 5.13477,0.41713 10.29399,2.22802 15.41161,1.66757 3.5092,-0.48364 6.35664,-0.99835 1.2783,-1.88511 -11.15069,-3.22342 -22.49925,-5.85602 -33.15688,-10.55172 -3.02148,-1.46907 -7.11112,-1.64244 -8.32783,-5.30073 -0.66857,-1.97242 4.98005,-0.99756 6.78758,-1.81476 12.29544,-1.47232 24.51184,-3.41939 36.61303,-6.05861 5.98127,-0.76315 12.09119,-1.53964 18.06812,-1.79071 4.6222,0.6585 6.60424,5.38598 9.78735,8.2624 7.87909,8.73551 15.75817,17.47102 23.63726,26.20653 z"
       id="path1468"
       inkscape:connector-curvature="0" />
    <path
       style="fill:#9fb4b1;fill-opacity:1;stroke:none;stroke-width:0.26458332px;stroke-linecap:butt;stroke-linejoin:miter;stroke-opacity:1"
       d="m 598.03061,261.37572 c -8.57067,-5.78698 -15.08213,-4.45614 -23.84575,-9.73394 -60.73268,-6.70872 -121.46537,-13.41745 -182.19806,-20.12617 -32.09614,11.65932 -64.19227,23.31865 -96.28841,34.97797 13.59511,0.62362 27.19023,1.24725 40.78534,1.87087 2.53973,4.7542 4.14931,10.48236 7.24732,14.65198 11.38876,4.80134 23.29567,8.56303 33.53621,15.66823 9.43865,5.21241 17.90924,12.49778 27.22183,17.55409 8.73204,-0.9508 16.62897,4.06045 24.20013,7.75288 4.80883,2.61911 7.78071,7.69615 11.81579,11.35058 6.60368,-2.95431 14.66041,-3.51518 19.46964,-9.42526 2.99679,-5.32638 6.15224,-0.58435 9.27431,2.03928 2.98716,3.05362 9.93018,2.19323 9.87315,7.54956 1.18359,4.06104 1.66623,8.88882 3.79091,12.34066 3.59005,3.03303 7.0065,3.09269 10.21044,-0.48698 5.90976,-4.27546 12.31996,-7.63147 19.47672,-9.22229 6.28766,-1.97809 12.08129,-5.25503 18.15473,-7.79631 4.82457,2.2218 9.21604,6.48524 14.87367,4.78001 l 16.61175,-1.20813 c 4.20702,3.92109 7.02459,10.0854 13.36329,10.56496 7.89524,2.83029 14.1477,3.69471 22.42699,4.64858 z"
       id="path1464"
       inkscape:connector-curvature="0"
       sodipodi:nodetypes="cccccccccccccccccccccc" />
    <path
       style="fill:#9db4c4;fill-opacity:1;stroke:none;stroke-width:0.26458332px;stroke-linecap:butt;stroke-linejoin:miter;stroke-opacity:1"
       d="m 452.72337,244.60421 c -13.59642,2.0403 -27.23243,4.7786 -40.80422,6.38459 -9.50853,-2.55201 -18.86163,-5.75626 -28.60567,-7.32005 -0.40029,4.79526 -0.0936,9.82806 -3.65364,13.56167 -1.12362,4.69736 -5.71832,2.49403 -9.17271,2.55769 -5.51733,-0.34618 -11.12429,-1.5469 -16.34841,0.9025 -3.63525,0.75419 -7.04607,1.8803 -9.15918,5.15714 -4.28711,2.5365 3.59425,4.57544 5.75929,4.88238 3.36244,0.33415 8.1071,-2.81226 10.42142,0.16114 4.87607,3.4304 0.70896,4.96239 -3.0123,6.58797 -5.3717,1.72073 -11.11381,2.42612 -16.08751,5.29106 -4.62385,-1.93775 -8.89874,-5.33426 -13.7405,-6.36103 -4.04668,1.12617 -6.56773,-1.83298 -9.27143,-4.30303 -3.5737,0.76254 -7.45602,2.72798 -9.82215,-1.21608 -3.89468,1.38578 -7.50028,4.66886 -11.57535,4.8708 -19.15345,-2.90204 -38.30691,-5.80408 -57.46037,-8.70612 -10.78877,2.86869 -21.57755,5.73739 -32.36632,8.60608 -8.56875,-3.51015 -16.96602,-7.45361 -25.18718,-11.6512 -4.51691,-1.53507 -9.83071,-1.61495 -13.85384,-4.05171 -3.22961,-3.92181 -9.78404,-6.68457 -9.07482,-12.51144 0.0397,-4.07387 2.34019,-6.86623 5.4922,-9.17591 5.2322,-4.36152 11.10435,-9.85246 18.48943,-8.34815 10.09654,1.408 19.86877,-2.58787 29.88483,-3.34776 9.54556,-0.91409 18.8863,-2.84251 28.04353,-5.67979 7.63467,-1.55142 14.60679,-5.54642 21.99699,-7.57014 12.37166,1.00065 24.71536,3.25382 37.14176,1.80257 14.98813,-1.03049 29.96285,1.20442 44.94469,1.70731 20.20782,1.21168 40.41564,2.42337 60.62346,3.63506 15.466,8.04482 30.932,16.08963 46.398,24.13445 z"
       id="path1443"
       inkscape:connector-curvature="0" />
    <path
       style="fill:#bcc8ce;fill-opacity:1;stroke:none;stroke-width:0.26458332px;stroke-linecap:butt;stroke-linejoin:miter;stroke-opacity:1"
       d="m 598.03061,207.33107 c -13.78316,0.86697 -26.57938,-1.78093 -40.25883,-0.10145 -12.10345,-2.66971 -24.37618,-2.58094 -36.36564,-5.79667 -13.10205,-3.32741 -26.26579,-6.22949 -39.59148,-2.71239 -21.35914,1.34782 -42.42346,-4.91668 -63.75351,-3.76137 -14.40767,1.97942 -28.80982,4.22896 -42.91801,7.81259 -13.70521,-2.90867 -25.57314,6.91576 -39.28232,4.15905 -16.09572,0.30742 -31.81526,4.19244 -47.14291,8.81923 15.94969,3.00019 32.05603,4.97778 48.27185,5.56506 23.29538,3.13406 47.10594,6.06686 68.60719,16.19789 18.16352,5.11644 36.52569,10.24915 55.25673,12.92768 14.5068,4.83459 30.66706,2.57636 44.5136,9.37213 10.26673,8.38474 23.72846,11.31604 36.66393,9.31354 10.14453,-0.57262 19.72772,-6.29865 30.15258,-4.47201 8.8525,-1.64324 18.92928,5.91775 25.84682,2.70058 z"
       id="path1404"
       inkscape:connector-curvature="0"
       sodipodi:nodetypes="cccccccccccccccc" />
    <path
       style="fill:#0f2f2b;fill-opacity:1;stroke:none;stroke-width:0.26458332px;stroke-linecap:butt;stroke-linejoin:miter;stroke-opacity:1"
       d="m -105.83333,456.01458 c 28.564376,-19.13979 61.904198,-5.22145 92.37265,-6.00082 33.433992,-3.43879 70.920425,-9.27458 99.590931,12.88852 22.018409,20.66238 48.906279,20.68112 76.737529,16.24013 24.23255,8.79622 44.82882,29.75925 73.55086,15.1663 35.24395,-1.40981 69.24141,12.91263 105.20746,7.93019 26.96069,10.22413 54.93043,12.81925 83.41197,16.40605 12.98361,15.97493 -38.7672,-3.49738 -50.41379,8.82233 -33.73618,15.3879 -70.97124,20.51435 -107.02861,10.30484 -12.38524,2.25725 -57.67465,-6.11878 -24.07351,5.61055 37.34571,18.90223 77.38666,34.703 106.92289,65.53178 10.84714,15.01602 43.48874,31.0028 40.46822,44.39775 -32.69615,-4.63016 -65.75833,-16.27587 -99.0621,-22.9613 C 191.51523,605.78216 91.334342,580.58598 -8.9802559,555.93072 -41.264614,522.62534 -73.548972,489.31996 -105.83333,456.01458 Z"
       id="path1429"
       inkscape:connector-curvature="0" />
    <path
       style="fill:#567136;fill-opacity:1;stroke:none;stroke-width:0.26458332px;stroke-linecap:butt;stroke-linejoin:miter;stroke-opacity:1"
       d="m -562.59905,280.44264 c -12.6288,8.50879 -24.49307,19.62155 -40.89898,15.26559 -16.23114,-3.88419 -29.73441,5.48867 -44.73572,8.3422 -12.15635,3.54801 -33.75194,-8.47807 -33.75194,-8.47807 0.0532,136.18766 0,387.31441 0,387.31441 h 350 c 0,0 -24.71032,-229.89463 -27.43505,-344.82076 -25.78981,-0.70567 -47.07332,-18.46853 -73.13946,-18.68946 -25.90387,-5.64634 -53.50512,-1.90375 -77.09273,-16.10894 -17.6487,-7.60833 -35.29741,-15.21664 -52.94612,-22.82497 z m 203.17831,57.62337 c 2.72473,114.92613 -22.56495,344.82076 -22.56495,344.82076 l 884.48338,0 C 460.74993,675.00234 420.9848,661.89171 381.69188,646.03262 343.25702,632.83586 307.03773,611.34193 265.67592,609.31546 233.8248,608.04295 205.10661,594.79973 175.93177,583.30142 153.52222,566.47116 132.414,546.19733 103.38284,542.43758 72.779298,538.69288 51.039201,514.52758 25.085322,500.07046 7.0994238,484.7436 -18.775662,486.75186 -36.548121,470.67927 -68.660494,451.43229 -103.81845,431.49528 -142.60489,434.76582 c -17.36378,3.54806 -27.89891,-15.90749 -45.51082,-14.06896 -17.22458,0.73565 -29.34941,-9.81495 -41.314,-20.72018 -17.37944,-8.72278 -37.02748,-14.52285 -55.50723,-18.61772 -19.48635,-14.55714 -35.04369,-36.37132 -60.73544,-39.31828 -4.5828,-1.3249 -9.16557,-2.64977 -13.74836,-3.97467 z"
       id="path1425"
       inkscape:connector-curvature="0"
       sodipodi:nodetypes="ccccccccccccccccccccccccc" />
    <path
       style="fill:#a3c88c;fill-opacity:1;stroke:none;stroke-width:0.26458332px;stroke-linecap:butt;stroke-linejoin:miter;stroke-opacity:1"
       d="m 203.32643,277.42421 c -2.87158,-13.35408 22.11791,-3.48249 29.5369,-11.61585 17.08294,-9.44217 34.30188,-0.71881 50.9727,3.77559 18.27056,-0.26111 30.43645,13.29337 42.08782,25.29732 10.59763,9.61597 26.46056,8.33039 37.441,18.20607 14.50059,6.84512 25.5056,18.98302 38.85144,27.77842 13.63729,9.91332 26.7033,20.7712 36.65151,34.47642 13.27535,13.78938 31.62707,20.91382 47.0674,31.90168 5.51889,3.52785 19.63462,10.05919 5.25645,9.86258 -15.03813,1.65551 -31.56444,-18.63986 -43.31639,-12.44379 -0.36,14.34227 1.26958,28.71633 10.31732,40.39002 5.03325,10.0657 3.97744,32.20526 21.50138,23.52444 16.70248,-6.58558 33.93338,-23.19786 52.76857,-12.63744 12.32395,4.80692 32.346,16.01764 31.12938,27.48433 -16.18241,2.06182 -23.99692,-18.473 -40.1866,-18.60567 -23.41509,-5.63097 -40.72477,16.76744 -63.05207,17.94498 -25.10981,-1.3073 -9.21324,-35.51438 -26.43301,-46.04823 -19.54316,-11.00859 -40.41198,-20.6824 -56.35418,-36.90177 -9.61238,-7.78961 -26.00333,17.82927 -29.00996,0.77324 6.79302,-6.14222 26.12713,-24.34035 6.84866,-25.82213 -14.38404,-3.7381 -30.18786,-8.868 -42.65834,-15.54506 2.98221,-13.78506 4.83309,-27.64347 -8.42358,-37.268 -13.65314,-16.6083 -29.20448,-31.95274 -47.55057,-43.33653 -11.7307,9.95405 -23.4825,-14.83896 -34.26065,-0.56595 -5.78842,2.02646 -14.79379,5.93237 -19.18518,-0.62467 z"
       id="path1441"
       inkscape:connector-curvature="0" />
  </g>
</svg>
