<?xml version="1.0" encoding="UTF-8" standalone="no"?>
<!-- Created with Inkscape (http://www.inkscape.org/) -->

<svg
   xmlns:dc="http://purl.org/dc/elements/1.1/"
   xmlns:cc="http://creativecommons.org/ns#"
   xmlns:rdf="http://www.w3.org/1999/02/22-rdf-syntax-ns#"
   xmlns:svg="http://www.w3.org/2000/svg"
   xmlns="http://www.w3.org/2000/svg"
   xmlns:sodipodi="http://sodipodi.sourceforge.net/DTD/sodipodi-0.dtd"
   xmlns:inkscape="http://www.inkscape.org/namespaces/inkscape"
   sodipodi:docname="page1_person.svg"
   inkscape:version="0.92.4 5da689c313, 2019-01-14"
   id="svg848"
   version="1.1"
   viewBox="0 0 223.34958 571.18054"
   height="571.18054mm"
   width="223.34958mm">
  <defs
     id="defs842" />
  <sodipodi:namedview
     id="base"
     pagecolor="#ffffff"
     bordercolor="#666666"
     borderopacity="1.0"
     inkscape:pageopacity="0.0"
     inkscape:pageshadow="2"
     inkscape:zoom="0.25"
     inkscape:cx="-91.797613"
     inkscape:cy="1534.9264"
     inkscape:document-units="mm"
     inkscape:current-layer="layer1"
     showgrid="false"
     inkscape:window-width="2528"
     inkscape:window-height="1370"
     inkscape:window-x="16"
     inkscape:window-y="54"
     inkscape:window-maximized="0" />
  <metadata
     id="metadata845">
    <rdf:RDF>
      <cc:Work
         rdf:about="">
        <dc:format>image/svg+xml</dc:format>
        <dc:type
           rdf:resource="http://purl.org/dc/dcmitype/StillImage" />
        <dc:title></dc:title>
      </cc:Work>
    </rdf:RDF>
  </metadata>
  <g
     inkscape:label="Layer 1"
     inkscape:groupmode="layer"
     id="layer1"
     transform="translate(118.42755,-109.30889)">
    <g
       id="g4829"
       transform="translate(842.80487,18.457793)">
      <path
         inkscape:connector-curvature="0"
         id="path1599"
         d="m -916.85683,661.99991 132.62139,-7e-5 c 1.92458,-8.95564 6.90546,-17.15077 6.88748,-26.53546 -0.0328,-6.12801 5.59134,-14.19014 -2.98928,-16.37143 -43.42778,-27.4835 -86.85555,-54.96701 -130.28333,-82.45052 -2.07875,41.7858 -4.15751,83.57168 -6.23626,125.35748 z"
         style="fill:#b95a5a;fill-opacity:1;stroke:none;stroke-width:0.26458332px;stroke-linecap:butt;stroke-linejoin:miter;stroke-opacity:1"
         sodipodi:nodetypes="cccccc" />
      <rect
         ry="0.099220335"
         rx="4.3986979"
         y="125.02417"
         x="-811.54907"
         height="45.016018"
         width="43.883179"
         id="rect4816"
         style="opacity:1;fill:#daa8a8;fill-opacity:1;stroke:none;stroke-width:1.06500006;stroke-linecap:square;stroke-linejoin:round;stroke-miterlimit:4;stroke-dasharray:none;stroke-opacity:1;paint-order:stroke markers fill" />
      <path
         sodipodi:nodetypes="ccccccccccccccsccccccccccc"
         inkscape:connector-curvature="0"
         id="path1498"
         d="m -862.09493,205.33237 c -7.4483,-6.96478 -4.76856,-18.54372 -10.14173,-26.67136 -4.86606,-7.42264 -4.73368,-16.54065 -5.96433,-25.01628 -0.46582,-7.39631 -1.60462,-15.30533 1.96614,-22.13674 4.40937,-10.71505 8.33265,-22.6696 18.16311,-29.72374 5.73946,-4.799649 11.71609,-10.216092 19.61683,-10.627291 12.73185,-0.69475 25.78167,-0.39007 38.16166,2.864308 6.96609,2.233349 14.12541,4.036445 20.69822,7.324593 14.0393,4.98082 31.85334,37.69862 13.75113,50.99872 -6.32739,2.16064 -12.98894,2.66325 -19.07177,0.36523 1.18028,-1.0135 13.51809,0.93968 5.0443,-1.26825 -2.93541,-0.5763 -4.16874,-1.63003 -0.46819,-0.85653 2.86855,0.17185 11.75338,-4.26426 12.04924,-7.18889 5.72703,-4.44111 -14.39367,9.39136 -9.14026,3.3798 1.46178,-1.59403 1.98182,-4.71418 1.97532,-7.52388 -0.007,-2.8097 -0.53954,-5.30894 -1.18394,-5.66115 -0.71859,5.42208 -1.95075,13.79408 -9.01491,13.68152 2.2666,-1.55592 6.77956,-6.99619 7.73574,-11.68461 0.97659,-2.60012 -4.61509,5.58407 -7.28378,6.6727 -3.9983,3.46994 -9.11362,6.45801 -11.05001,11.59199 -2.27616,5.46799 6.53108,15.29759 -1.64633,17.31108 -4.14463,1.14787 -7.79741,2.39531 -9.20025,-2.91723 -1.27555,-3.06731 -5.34372,-8.41381 -6.90813,-2.34254 -6.0413,9.81351 -12.0826,19.62702 -18.1239,29.44054 -8.29028,4.58611 -16.58055,9.17223 -24.87083,13.75834 -1.69778,-1.25675 -3.39556,-2.51371 -5.09333,-3.77033 z"
         style="fill:#665416;fill-opacity:1;stroke:none;stroke-width:0.26458332px;stroke-linecap:butt;stroke-linejoin:miter;stroke-opacity:1" />
      <path
         sodipodi:nodetypes="ccccccccccccccccccccccccc"
         inkscape:connector-curvature="0"
         id="path1406"
         d="m -813.74425,260.88805 c 1.76941,-6.74775 7.076,-12.37668 10.40953,-18.56968 4.33554,-5.74476 8.3295,-11.61958 12.35729,-17.47934 5.74952,-3.57104 13.7172,-1.80322 20.01807,-4.19385 5.88804,-1.68702 8.02382,-8.37193 5.69362,-13.65244 -3.59752,-4.93357 3.9708,-9.77922 -0.29209,-13.61622 3.98644,-3.83859 -3.52005,-12.45359 4.44145,-12.18408 7.14046,-3.25721 1.81937,-12.2395 -2.28107,-16.06645 -2.8645,-5.93977 -8.04464,-7.02745 -14.19443,-6.41741 -5.64084,-0.2089 -10.86444,-1.66082 -16.64052,-1.17854 -5.03526,-0.57201 -0.0929,7.89539 -0.6194,11.41875 -4.33053,1.78929 -8.86434,4.23329 -10.14477,-1.91995 -2.46044,-4.10074 -5.98237,-7.64037 -9.80746,-10.196 -3.18904,-5.19091 -10.15284,-1.93715 -12.80011,2.04548 -2.45094,3.64396 -1.63643,9.08205 -7.20149,8.21128 -4.61273,3.28018 -1.56454,9.98263 -0.9189,14.60974 3.10129,5.68542 0.3474,12.56497 -4.82671,15.98471 -3.71217,3.00124 -7.5583,6.11775 -12.46743,6.70596 -3.3324,1.26716 -7.72608,0.62619 -10.05272,-0.58998 0.39036,4.69815 1.76245,10.71616 -1.61313,14.44461 -2.89135,3.858 -11.24142,9.89045 -11.4571,12.6591 6.04996,0.77478 12.97742,-1.0288 18.33339,2.53362 5.51931,2.73731 11.51155,5.98991 15.71212,10.67283 6.95859,6.76872 12.90197,11.75083 20.93794,17.14185 1.52321,0.14326 5.89074,-0.50724 7.41392,-0.36399 z"
         style="fill:#daa8a8;fill-opacity:1;stroke:none;stroke-width:0.26458332px;stroke-linecap:butt;stroke-linejoin:miter;stroke-opacity:1" />
      <path
         inkscape:connector-curvature="0"
         id="path1431"
         d="m -801.89636,623.56909 c -0.27091,5.07734 -0.39595,10.28854 -2.32573,15.0704 -1.74361,5.99403 -4.04583,12.21464 -8.89282,16.41785 -2.11488,2.16728 -4.07823,4.48411 -5.84708,6.9425 -7.8712,-0.11024 -15.74286,0.11024 -23.61406,0 -1.56133,-3.32677 -3.51612,-6.87091 -2.86531,-10.67935 -0.0138,-2.14307 -1.04307,-4.75782 0.74889,-6.46939 2.9684,-1.53062 6.05674,-2.87551 9.02274,-4.43484 11.24202,-5.64686 22.52144,-11.21982 33.77337,-16.84717 z"
         style="fill:#daa8a8;fill-opacity:1;stroke:none;stroke-width:0.26458332px;stroke-linecap:butt;stroke-linejoin:miter;stroke-opacity:1" />
      <path
         sodipodi:nodetypes="cccccccccccccc"
         inkscape:connector-curvature="0"
         id="path1423"
         d="m -813.74425,260.88805 -0.0501,-0.77509 0.52618,0.36248 0.0819,1.87089 1.33163,11.73528 -65.28017,-40.05095 -3.96393,-0.21048 4.95712,-2.91644 0.22816,-0.5055 15.08124,0.39688 14.68437,7.40833 12.56771,11.37708 14.94896,10.84792 z"
         style="fill:#636363;fill-opacity:0.96495954;stroke:none;stroke-width:0.26458332px;stroke-linecap:butt;stroke-linejoin:miter;stroke-opacity:1" />
      <path
         sodipodi:nodetypes="cccccccccccccccccsccccccccccccccccc"
         inkscape:connector-curvature="0"
         id="path1596"
         d="m -812.51593,268.45081 c -1.78789,4.49916 -9.10329,-3.68335 -12.25008,-5.77632 -9.18164,-7.37612 -18.24449,-14.96649 -26.31991,-23.4829 -6.67898,-6.34279 -15.86826,-8.55167 -24.82754,-8.79335 0,0 -7.10325,1.43325 -9.58681,2.53316 -7.71113,1.91915 -11.69171,9.8637 -17.90147,14.74962 -12.01139,11.68193 -19.86683,26.63194 -27.84876,41.17182 -5.41179,11.55294 -9.54949,23.51037 -12.45262,35.92011 -5.25204,18.5822 -5.88067,37.99111 -6.95438,57.23268 0.90431,26.71305 -3.71495,53.17323 -4.15273,79.85988 -1.81431,20.83802 -2.53274,41.75636 -5.69844,62.44521 -0.75132,14.35604 -2.61626,30.39409 5.61829,43.03772 5.28808,2.63316 11.66419,5.96063 8.22743,12.70633 -0.36607,12.83591 -5.93753,24.97311 -6.3695,37.63834 1.34223,7.05403 1.07326,17.10499 8.94643,20.23455 1.77976,3.35561 5.00063,8.91493 7.15152,13.02964 1.86146,3.67256 3.75585,9.63774 6.1224,11.04261 0,0 13.95527,-0.0265 14.02307,0 0.0678,0.0264 0.79319,-0.12148 2.18084,-3.1821 14.72518,-9.65268 29.8136,-19.47262 45.83317,-27.1233 6.59295,-0.71725 13.23008,-1.04397 19.75342,-2.3028 0.60519,5.80973 -1.42489,12.25213 3.74558,16.73562 4.99068,7.64892 15.26164,5.01722 22.10204,1.80861 12.29196,-6.97142 23.9377,-19.42501 22.05246,-34.63999 -1.35474,-7.34811 5.8774,4.26497 8.38362,5.96886 3.57799,4.96051 13.05627,8.39491 17.63469,3.34086 1.23638,-4.94123 4.5284,-7.88128 10.09282,-5.32161 4.58078,5.85511 13.45796,4.43789 16.74286,-2.00302 8.9822,-15.59731 2.49304,-34.68455 7.33637,-51.23012 6.95121,-12.05969 0.16252,-25.96001 -2.17698,-38.42541 -13.50311,-55.1821 -23.35449,-111.16226 -35.78569,-166.57489 -4.26021,-19.86637 -10.18709,-39.41618 -20.05371,-57.27366 -2.76556,-6.79246 -8.5328,-12.89 -8.55053,-20.30833 -2.5765,-4.07128 -1.52504,-9.35283 -5.01786,-13.0178 z"
         style="fill:#0c73a2;fill-opacity:1;stroke:none;stroke-width:0.26458332px;stroke-linecap:butt;stroke-linejoin:miter;stroke-opacity:1" />
      <path
         inkscape:connector-curvature="0"
         id="path1419"
         d="m -817.07683,155.15738 51.39531,0.39687 0.26458,-0.69453 1.45521,-0.69453 1.75286,-0.39688 1.52136,0.19844 0.49609,1.45521 -0.46302,5.72161 -0.76068,0.42995 -2.3151,9.32656 -0.82682,0.46302 -1.5875,-0.19843 -1.52136,-1.12448 0.82683,-11.1125 -16.37108,-0.42995 -1.15755,-0.8599 -10.08724,-0.0992 -2.24896,-0.16537 -18.12397,-1e-5 z"
         style="fill:#000000;fill-opacity:1;stroke:none;stroke-width:0.26458332px;stroke-linecap:butt;stroke-linejoin:miter;stroke-opacity:1" />
    </g>
  </g>
</svg>
