<?xml version="1.0" encoding="UTF-8" standalone="no"?>
<!-- Created with Inkscape (http://www.inkscape.org/) -->

<svg
   xmlns:dc="http://purl.org/dc/elements/1.1/"
   xmlns:cc="http://creativecommons.org/ns#"
   xmlns:rdf="http://www.w3.org/1999/02/22-rdf-syntax-ns#"
   xmlns:svg="http://www.w3.org/2000/svg"
   xmlns="http://www.w3.org/2000/svg"
   xmlns:sodipodi="http://sodipodi.sourceforge.net/DTD/sodipodi-0.dtd"
   xmlns:inkscape="http://www.inkscape.org/namespaces/inkscape"
   sodipodi:docname="page1_top.svg"
   inkscape:version="0.92.4 5da689c313, 2019-01-14"
   id="svg848"
   version="1.1"
   viewBox="0 0 1280 261.47711"
   height="261.47711mm"
   width="1280mm">
  <defs
     id="defs842" />
  <sodipodi:namedview
     id="base"
     pagecolor="#ffffff"
     bordercolor="#666666"
     borderopacity="1.0"
     inkscape:pageopacity="0.0"
     inkscape:pageshadow="2"
     inkscape:zoom="0.25"
     inkscape:cx="2038.1243"
     inkscape:cy="-189.46991"
     inkscape:document-units="mm"
     inkscape:current-layer="layer1"
     showgrid="false"
     inkscape:window-width="2528"
     inkscape:window-height="1370"
     inkscape:window-x="16"
     inkscape:window-y="54"
     inkscape:window-maximized="0" />
  <metadata
     id="metadata845">
    <rdf:RDF>
      <cc:Work
         rdf:about="">
        <dc:format>image/svg+xml</dc:format>
        <dc:type
           rdf:resource="http://purl.org/dc/dcmitype/StillImage" />
        <dc:title />
      </cc:Work>
    </rdf:RDF>
  </metadata>
  <g
     inkscape:label="Layer 1"
     inkscape:groupmode="layer"
     id="layer1"
     transform="translate(681.96939,37.234181)">
    <path
       style="fill:#c1c8d2;fill-opacity:1;stroke:none;stroke-width:0.26458332px;stroke-linecap:butt;stroke-linejoin:miter;stroke-opacity:1"
       d="m 113.10349,189.05334 85.98961,-2.11667 62.44166,-9.525 82.02084,1.5875 84.1375,-5.82084 88.37083,-13.75833 55.03333,1.5875 26.93335,3.33566 V -37.234181 h -1280 V 207.57417 h 24.342 l 29.10416,0.79375 19.05,-6.08542 12.7,6.61458 h 22.75417 l 8.20208,-1.32291 15.61042,-1.85209 h 28.83958 l 19.84375,7.67292 30.1625,-2.11667 11.90625,0.52917 4.23333,-5.82083 20.90209,-5.02709 60.58958,0.26459 76.46458,1.85208 21.43125,3.175 42.8625,17.72708 42.8625,0.26459 40.74583,-0.26459 34.925,-5.29166 42.333336,-5.82084 25.929166,-1.85208 13.49375,-2.91042 19.05,-2.38125 H 3.8306014 L 36.374351,206.78042 97.4931,196.72625 Z"
       id="path873"
       inkscape:connector-curvature="0"
       sodipodi:nodetypes="ccccccccccccccccccccccccccccccccccccccc" />
    <path
       style="fill:#fdf9f9;fill-opacity:0.98921838;stroke:none;stroke-width:0.26458332px;stroke-linecap:butt;stroke-linejoin:miter;stroke-opacity:1"
       d="m 398.90259,69.246208 c -18.64112,9.021445 -39.6794,14.759926 -60.42712,11.015155 -18.02295,-3.809363 -35.51418,0.860555 -50.11344,11.669087 -26.44162,15.03367 -42.06044,18.17139 -66.30253,36.47882 -4.19796,8.18842 -21.61009,15.68988 -12.9922,23.52927 13.07508,5.84636 21.93215,-6.5835 29.64758,-13.43507 12.28945,-13.66227 18.53671,-11.28074 34.56198,-20.45926 10.67447,-5.50392 14.80343,-8.8552 25.59114,-14.10907 15.25578,3.28068 30.8241,10.46139 46.51269,4.9016 20.30498,-4.5037 41.26206,-3.97458 61.63209,-0.19633 26.44616,3.82319 52.54818,9.86207 78.12693,17.56381 20.08955,3.12855 36.6625,-18.06902 56.39698,-11.16693 11.61068,2.24814 31.0722,8.17166 37.84053,8.15285 C 563.93277,111.44016 553.26378,90.326025 531.78588,89.181717 517.47387,85.450502 508.17733,101.63802 497.11814,102.65178 485.83896,93.828964 473.9765,85.670621 462.44593,77.112508 c -17.06415,-0.440615 -35.1984,5.181083 -51.19243,-3.400797 -4.09729,-1.542341 -8.22181,-3.010949 -12.35091,-4.465503 z"
       id="path1439"
       inkscape:connector-curvature="0"
       sodipodi:nodetypes="cccccccccccccccccc" />
    <path
       style="fill:#afb9c0;fill-opacity:1;stroke:none;stroke-width:0.26458332px;stroke-linecap:butt;stroke-linejoin:miter;stroke-opacity:1"
       d="m 63.672196,154.12872 c -29.849294,7.62523 -60.6336064,10.87078 -91.413538,10.38489 -7.95747,-2.66451 -15.796833,-8.96798 -24.011992,-3.69302 -19.164371,7.82793 -40.037787,8.4906 -60.290006,11.36594 -23.12858,-1.72934 -45.46622,6.81228 -68.23043,8.45304 -16.13794,-4.31812 -32.54921,-7.20326 -49.05672,-9.36691 -15.32154,-3.40404 -29.3865,-10.86791 -45.23593,-11.86019 -14.30899,-2.06245 -28.95485,0.12523 -43.16331,-3.46857 -14.92411,-2.01644 -29.9559,-4.87709 -44.58229,-7.57824 -7.98797,0.43689 -9.36343,9.41638 -18.64112,6.09378 -9.94458,2.03856 -16.82081,-10.64001 -26.8176,-5.90407 -11.02529,3.79286 -22.30585,-0.41085 -33.36489,-0.36656 -16.89479,6.43873 -35.35706,5.0458 -53.06613,3.88938 -8.25503,-5.47482 -13.1544,-14.58203 -19.84294,-21.16528 -7.38113,-3.163 -16.90149,-4.1677 -22.99351,-8.63131 0.95197,-5.08789 13.30371,-2.9867 18.89978,-3.1589 23.07855,0.85005 45.67864,7.68453 68.47869,9.57679 23.03244,-2.56364 45.65457,-8.09842 68.49995,-11.43428 9.79257,-0.56238 20.43832,1.11284 29.71057,-0.81415 5.78058,-4.48154 10.22751,-12.14593 18.56982,-10.51376 23.44659,-1.17501 46.9253,-4.74453 70.30513,-0.94068 21.79718,1.42973 43.5515,5.28676 65.34825,5.41651 18.51103,-1.45756 37.03089,-4.05627 55.50552,-0.80686 43.875334,4.31914 87.870028,8.11896 131.585038,13.6261 21.389795,5.29068 43.482869,8.36707 64.424685,15.06823 5.618057,2.42826 17.725987,5.39612 12.690265,13.51302 -1.102431,0.7717 -2.204861,1.5434 -3.307292,2.3151 z"
       id="path867"
       inkscape:connector-curvature="0" />
    <path
       style="fill:#afb9c0;fill-opacity:1;stroke:none;stroke-width:0.26458332px;stroke-linecap:butt;stroke-linejoin:miter;stroke-opacity:1"
       d="M -681.96939,163.65333 V 91.157502 c 25.08346,2.855059 48.16021,10.066958 71.69358,18.886028 12.57344,6.1193 22.96288,15.72783 34.53288,23.37216 8.61902,9.28728 4.95791,28.67619 -7.92675,28.14417 -15.21022,-4.74523 -33.9101,-22.45706 -48.53718,-9.82668 -12.49085,10.44796 -29.25545,26.08991 -45.89248,13.6202 z"
       id="path869"
       inkscape:connector-curvature="0"
       sodipodi:nodetypes="cccccccc" />
    <path
       style="fill:#afb9c0;fill-opacity:1;stroke:none;stroke-width:0.26458332px;stroke-linecap:butt;stroke-linejoin:miter;stroke-opacity:1"
       d="m -681.96939,-24.465412 c 44.88075,20.0223152 94.49704,24.65559003 142.97058,27.1062756 25.88331,2.2776224 44.75497,26.8645534 52.88705,49.5976534 -2.17223,31.097072 -39.44903,10.661378 -58.05297,10.53483 -28.01819,8.669635 -57.45125,9.982505 -86.74008,7.217493 -17.02364,-17.756371 -43.83739,-20.754018 -51.06458,-54.282992 z"
       id="path871"
       inkscape:connector-curvature="0"
       sodipodi:nodetypes="ccccccc" />
  </g>
</svg>
