<?xml version="1.0" encoding="UTF-8" standalone="no"?>
<!-- Created with Inkscape (http://www.inkscape.org/) -->

<svg
   xmlns:dc="http://purl.org/dc/elements/1.1/"
   xmlns:cc="http://creativecommons.org/ns#"
   xmlns:rdf="http://www.w3.org/1999/02/22-rdf-syntax-ns#"
   xmlns:svg="http://www.w3.org/2000/svg"
   xmlns="http://www.w3.org/2000/svg"
   xmlns:sodipodi="http://sodipodi.sourceforge.net/DTD/sodipodi-0.dtd"
   xmlns:inkscape="http://www.inkscape.org/namespaces/inkscape"
   width="186mm"
   height="186mm"
   viewBox="0 0 186 186"
   version="1.1"
   id="svg858"
   sodipodi:docname="allies2.svg"
   inkscape:export-filename="C:\Users\luke\Desktop\bcallies.com\static\img\favico.png"
   inkscape:export-xdpi="96"
   inkscape:export-ydpi="96"
   inkscape:version="0.92.4 (5da689c313, 2019-01-14)">
  <defs
     id="defs852" />
  <sodipodi:namedview
     id="base"
     pagecolor="#ffffff"
     bordercolor="#666666"
     borderopacity="1.0"
     inkscape:pageopacity="0.0"
     inkscape:pageshadow="2"
     inkscape:zoom="1.28"
     inkscape:cx="183.19687"
     inkscape:cy="322.28968"
     inkscape:document-units="mm"
     inkscape:current-layer="layer1"
     showgrid="false"
     inkscape:window-width="2560"
     inkscape:window-height="1346"
     inkscape:window-x="-11"
     inkscape:window-y="-11"
     inkscape:window-maximized="1" />
  <metadata
     id="metadata855">
    <rdf:RDF>
      <cc:Work
         rdf:about="">
        <dc:format>image/svg+xml</dc:format>
        <dc:type
           rdf:resource="http://purl.org/dc/dcmitype/StillImage" />
        <dc:title />
      </cc:Work>
    </rdf:RDF>
  </metadata>
  <g
     inkscape:label="Layer 1"
     inkscape:groupmode="layer"
     id="layer1"
     transform="translate(-9.2604182,-7.8503163)">
    <g
       id="g1502"
       transform="matrix(0,1.0001921,-1,0,38.086312,-44.887492)">
      <rect
         y="7.6592259"
         x="52.72768"
         height="21.166666"
         width="30.994047"
         id="rect1430"
         style="opacity:1;fill:#e70000;fill-opacity:1;stroke:none;stroke-width:0.13061012;stroke-opacity:1" />
      <rect
         y="7.6592255"
         x="83.721725"
         height="21.166666"
         width="30.994049"
         id="rect1430-0"
         style="opacity:1;fill:#ff8c00;fill-opacity:1;stroke:none;stroke-width:0.13061012;stroke-opacity:1" />
      <rect
         y="7.6592264"
         x="114.71577"
         height="21.166666"
         width="30.994049"
         id="rect1430-0-0"
         style="opacity:1;fill:#ffef00;fill-opacity:1;stroke:none;stroke-width:0.13061012;stroke-opacity:1" />
      <rect
         y="7.6592274"
         x="145.70981"
         height="21.166666"
         width="30.994049"
         id="rect1430-0-0-3"
         style="opacity:1;fill:#00811f;fill-opacity:1;stroke:none;stroke-width:0.13061012;stroke-opacity:1" />
      <rect
         y="7.6592274"
         x="176.70386"
         height="21.166666"
         width="30.994049"
         id="rect1430-0-0-9"
         style="opacity:1;fill:#0044ff;fill-opacity:1;stroke:none;stroke-width:0.13061012;stroke-opacity:1" />
      <rect
         y="7.6592274"
         x="207.69791"
         height="21.166666"
         width="30.994049"
         id="rect1430-0-0-30"
         style="opacity:1;fill:#760089;fill-opacity:1;stroke:none;stroke-width:0.13061012;stroke-opacity:1" />
    </g>
    <g
       id="g1458"
       transform="translate(-5.0272118,-15.345356)">
      <path
         inkscape:connector-curvature="0"
         id="path5216-8"
         d="m 125.87275,127.17499 -3.42519,-5.34981 -6.39368,-7.04612 -9.42742,-8.74239 -11.058471,-8.774982 -7.307062,-6.132735 -7.046103,-6.556792 -7.111358,-8.220442 -6.426299,-10.471308 -2.348699,-8.677146 -0.782904,-8.089965 0.848143,-5.610784 1.761537,-7.502791 -3.523061,3.588291 -3.84926,6.719892 -1.696285,5.088861 -0.7829,6.524158 0.391451,6.850379 1.370074,5.349817 1.304835,4.37119 1.892011,4.762654 0.587174,1.370064 -2.674909,-3.588291 -3.196841,-4.632151 -2.348704,-4.762653 -1.95725,-5.219334 -1.043867,-4.501675 -0.717662,-5.545536 -0.260963,-3.979747 0.130481,-2.674909 -1.826769,4.240709 -1.565799,7.0461 -0.456693,9.655769 1.95725,8.089981 3.392571,7.698504 2.609667,3.653546 -2.218218,-1.565803 -3.979745,-3.131608 -3.84926,-5.480295 -2.087731,-5.480297 -1.631042,-4.175472 -0.848142,8.089966 1.101278,7.202683 2.221462,5.495826 3.602053,4.960209 3.661102,3.129662 3.070603,2.480097 -3.779203,-0.413368 -6.377404,-3.070599 -4.369704,-4.07445 2.598203,9.093707 5.550704,8.739418 6.141203,6.84979 6.967904,6.02309 2.302952,1.47627 2.834402,8.62129 5.727849,9.38897 6.61361,7.5584 9.152756,7.02696 6.613611,3.54299 7.204092,1.71246 -3.838233,3.36584 -5.845957,4.36973 -6.790762,3.18871 -9.211801,3.12964 -3.424904,0.70861 3.483949,5.13733 5.078302,3.83827 6.672658,2.77536 12.754809,1.83053 7.322199,-1.00385 2.30295,-0.94481 5.01925,-7.26314 3.77921,1.88958 3.60206,0.88578 1.53529,-0.0295 2.50963,1.94866 -1.0629,0.8267 -1.15147,1.74197 0.2362,2.21437 0.29524,2.0077 0.3543,0.59051 0.41335,-1.4172 1.26958,-1.35814 1.86009,-0.94481 1.88959,-0.11802 1.94866,0.41335 1.21052,1.68293 0.17711,1.56482 0.0295,1.32863 -1.181,1.86008 -1.21054,1.50578 -0.32477,0.38382 2.36201,-0.56098 2.86391,-1.91912 1.09243,-2.18486 0.0591,-2.39152 1.32862,0.5905 0.79717,1.44674 0.4724,1.65339 -0.20667,1.8896 -0.47239,1.6534 1.68291,-2.00771 1.12196,-2.27341 0.29524,-2.15532 v -0.85623 l 0.44288,-0.85623 0.97432,-0.35431 0.70861,-0.2362 h 1.29909 l 1.59436,0.50193 0.82669,1.21054 0.47242,1.24004 -0.11802,0.94479 -0.79717,1.56484 -0.79719,1.21052 3.27729,-1.59435 1.38767,-1.56483 0.26573,-1.32862 0.0295,-0.97432 0.94478,0.44286 0.94481,0.91528 0.44288,1.59435 -0.11819,1.32863 0.0885,0.50192 0.76766,-1.62386 0.20666,-2.50963 -0.50192,-3.01156 -1.50578,-1.56482 -2.95249,-1.21053 -4.45829,-1.68293 -3.48395,-1.56483 -1.35815,-4.0154 -2.33248,-4.34018 -1.94864,-3.42489 -2.12581,-3.30681 2.30296,0.67908 4.07445,1.68293 5.37355,2.62772 1.00385,1.91912 2.27343,2.2439 1.24005,0.53146 0.64955,-1.6534 1.00385,-1.97817 0.0295,-0.56099 0.38382,-0.2362 0.14765,1.12196 -0.11802,2.42105 -0.44288,2.42106 2.18486,-1.09243 3.51348,-2.36201 1.86008,-2.27343 0.17712,-2.03722 -0.32479,-2.56867 -2.09627,-2.89346 -0.47241,-0.20667 0.14766,-2.42105 -0.94479,-1.94866 -2.2439,-2.8344 -3.0706,-2.89345 -2.89346,-2.27343 3.15917,-1.74197 4.28114,-3.95635 3.7792,-5.19641 3.51348,-6.64312 3.27727,-5.60976 3.0706,-5.25545 4.10398,-4.78306 3.54301,-3.15918 6.3774,-4.4878 5.99357,-4.39922 2.74583,-2.03724 -9.5661,0.8267 3.69063,-1.50577 4.69447,-2.74583 4.81259,-4.694484 2.33247,-3.159157 1.56483,-3.041086 0.76765,-2.1258 -1.86008,1.682919 -2.77536,2.421052 -3.69061,2.037235 -1.83055,0.531421 3.33632,-4.163027 2.53915,-5.01923 1.47624,-4.222087 0.79719,-5.137349 -4.36971,5.432608 -3.36584,3.720148 -2.21439,1.56482 3.0706,-4.310648 3.54301,-6.288838 2.27343,-6.879321 0.5905,-6.259306 -0.11802,-4.694484 -1.86008,-5.432587 -1.181,-2.155336 -0.0591,3.897311 -1.181,6.790743 -2.77534,6.58408 -2.00771,3.602057 -4.69448,5.905001 -6.90885,6.525034 -9.15275,6.200268 -13.84724,7.29267 -8.32605,5.137343 -6.61361,5.31452 -5.81643,6.31835 -3.54301,5.43261 -2.53914,4.28111 z"
         style="fill:#000000;fill-opacity:1;stroke:none;stroke-width:0.47240028px;stroke-linecap:butt;stroke-linejoin:miter;stroke-opacity:1" />
      <path
         inkscape:connector-curvature="0"
         id="path4665"
         d="m 59.260988,83.593541 0.880766,1.598423 2.348698,3.327304 3.751399,4.632171 5.056226,5.512916 4.762652,4.436435 9.231691,7.11136 10.145088,6.75251 5.559372,4.01346 4.22116,4.10582 3.59836,4.63635 1.86839,3.59838 0.99185,3.75982 -0.11534,3.34463 -0.69199,1.98371 -0.99185,1.6608 -1.72998,1.89144 -2.12211,1.5685 -2.88331,1.45321 -3.690628,0.2768 -2.998628,-0.41521 -2.260505,-0.85348 -2.906373,-1.3609 -3.529174,-2.05291 -4.198082,-2.83717 -3.137036,-2.81409 -2.652643,-3.32158 -2.767965,-3.8521 -1.29172,-2.53729 1.914502,0.89958 3.644499,1.59161 3.390764,1.31477 2.237461,0.43827 0.645851,0.0461 -2.168257,-1.56853 -6.227918,-4.7286 -4.082771,-3.92132 -5.14381,-5.81273 -4.843945,-5.9742 -2.860237,-4.22116 -0.438261,-0.76117 2.214378,1.54543 4.590228,3.62144 4.613281,2.92943 4.843944,3.1601 4.567145,2.72183 2.95251,1.54547 1.407049,0.76117 0.553596,0.23066 0.25373,0.13838 h 0.276799 l -0.622801,-0.73811 -1.061046,-0.9688 -2.721846,-2.37585 -1.891436,-2.02984 -2.537321,-2.83717 -3.137035,-3.50609 -4.105821,-5.28223 -2.606507,-3.87514 -2.767964,-4.913152 -1.568519,-3.206222 -1.729976,-3.7137 -1.245589,-2.767973 -0.715062,-2.329712 z"
         style="fill:#7a002b;fill-opacity:1;stroke:none;stroke-width:0.47240028px;stroke-linecap:butt;stroke-linejoin:miter;stroke-opacity:1" />
      <path
         inkscape:connector-curvature="0"
         id="path5210"
         d="m 64.09061,68.294429 1.476251,3.367696 2.698772,4.428757 4.151959,5.651271 3.944363,4.613281 5.466744,5.558992 5.397542,4.936216 5.628203,4.544098 9.964686,7.77338 6.251,5.05156 5.74355,5.60513 4.19809,4.79781 3.32156,4.98235 1.93757,4.24423 1.31479,3.92128 0.2768,1.70691 5.14381,0.80732 2.32971,0.71506 2.07597,0.80732 -0.0691,-0.43825 -0.2768,-0.6228 -0.78428,-0.83038 -1.79916,-1.43011 -2.67571,-1.36091 -1.33786,-0.53052 0.64585,-3.27545 2.30666,-6.11261 2.92943,-6.06648 2.58343,-3.87516 1.86839,-2.51423 2.69878,-2.79103 2.60651,-2.65265 2.79103,-2.49116 6.4586,-4.72863 4.47489,-2.606503 3.02169,-1.706908 5.32834,-2.83717 6.89687,-3.852073 5.67434,-3.321597 3.59836,-2.652618 2.23744,-2.006792 1.84531,-1.753046 1.43011,-1.753044 -0.73812,2.07598 -2.16825,2.791031 -3.73675,3.782899 -5.16688,3.829023 -7.75032,4.797808 -5.74354,3.4369 -2.99863,2.00678 -2.72184,1.98374 -2.90636,2.56035 -2.72185,2.65263 -2.51423,3.22932 -1.56852,2.46808 -1.75304,2.99867 -1.70693,3.52915 -1.3609,4.01353 -0.87654,3.36774 -1.10719,4.63631 -0.36905,5.28224 -0.0461,3.18315 0.2768,4.49794 -2.49116,-1.15329 -4.49796,-1.38401 -5.60514,-0.96879 0.92265,2.05291 2.8141,4.1981 -1.9837,0.13837 -3.6445,1.1764 -2.72183,1.17638 -2.46812,1.03799 -0.41519,0.92264 1.82225,0.13838 2.49117,0.55359 4.40569,1.56852 2.05291,0.92265 -3.9213,1.59159 -3.55222,2.8141 -0.57667,0.83039 6.41247,1.36093 -5.99726,0.76119 -4.17502,0.29986 -3.43691,0.13838 -0.0923,0.85346 7.61192,1.59158 1.89145,3.75982 1.56852,4.03664 0.80731,3.29849 -3.69061,0.41519 -3.62143,-0.32293 -4.05969,-1.68384 5.30527,0.27679 -0.46132,-0.73812 -4.79783,-1.31479 -4.63635,-2.02984 -4.49794,-3.20624 -0.29987,-0.80733 4.63635,1.26866 5.8358,1.03799 1.68386,0.23066 -0.023,-0.50746 -3.3677,-1.77611 -2.95253,-2.16824 -3.29847,-2.92944 -2.88331,-3.4369 4.12889,-2.26051 3.96741,-3.73676 1.82227,-2.49117 1.82225,-4.15196 0.64585,-3.73675 -0.0923,-3.96743 -0.59972,-4.08275 -1.3148,-4.75169 -2.16823,-4.29035 -3.34463,-4.52103 -6.43553,-6.06645 -5.789664,-4.65942 -4.751708,-3.48304 -5.125402,-3.81349 -3.490412,-2.67491 -4.436439,-3.784008 -4.534293,-4.860513 -4.012371,-5.056234 -2.413946,-3.881866 -1.957246,-3.914512 -1.989875,-4.403814 -1.50056,-4.436431 z"
         style="fill:#7a002b;fill-opacity:1;stroke:none;stroke-width:0.47240028px;stroke-linecap:butt;stroke-linejoin:miter;stroke-opacity:1" />
      <path
         inkscape:connector-curvature="0"
         id="path5212"
         d="m 147.75253,142.4991 1.26865,-1.61465 1.70691,-2.79102 1.33786,-2.83719 1.56852,-4.01355 1.01492,-4.03663 0.57666,-2.00678 0.0923,-0.46134 v -0.48439 l -0.62278,-0.13837 -0.71508,0.2768 -2.21437,0.87651 -3.02169,1.96065 -0.78426,0.59972 0.29987,-1.29172 0.55358,-2.62956 1.70692,-3.85211 1.43011,-2.56037 2.02984,-2.44503 2.65265,-2.99862 3.2293,-2.51426 4.22115,-3.02169 6.22793,-3.9213 6.91992,-4.128887 5.00542,-3.137035 3.87516,-2.72183 -2.44503,3.275426 -3.89822,4.336486 -3.73677,3.48304 -3.62143,2.83716 -4.15196,2.72183 -1.31479,0.64587 -1.03798,0.53053 -0.32292,0.41519 2.49117,-0.76119 5.85886,-1.75305 4.59023,-0.85346 2.44503,-0.18452 -4.54407,2.39891 -4.1981,2.83717 -3.3677,2.97556 -2.99862,3.11396 -2.58344,3.82903 -2.44505,4.15195 -2.79103,5.39754 -3.22931,5.42061 -2.83717,2.69878 -2.97556,1.75305 z"
         style="fill:#7a002b;fill-opacity:1;stroke:none;stroke-width:0.47240028px;stroke-linecap:butt;stroke-linejoin:miter;stroke-opacity:1" />
      <path
         inkscape:connector-curvature="0"
         id="path5214"
         d="m 127.9846,172.13946 7.86566,0.39212 1.29172,2.16825 1.52238,2.6757 0.87651,1.93757 -4.19807,-0.43826 -3.39077,-1.40702 -1.08412,-0.69201 4.05968,-0.0693 -2.69876,-1.63771 -2.69878,-1.66079 z"
         style="fill:#7a002b;fill-opacity:1;stroke:none;stroke-width:0.47240028px;stroke-linecap:butt;stroke-linejoin:miter;stroke-opacity:1" />
      <path
         sodipodi:nodetypes="cccccccccccccccccccccccccccccccccccccccccccccccccccccccccccccccc"
         inkscape:connector-curvature="0"
         id="path5218"
         d="m 145.35653,167.7775 -1.02297,-2.60967 -1.14826,-2.60966 1.79545,0.16694 1.94158,0.35491 0.81422,0.41754 0.96036,0.0627 1.87895,-0.20877 -0.48016,-0.75159 -0.96035,-0.64717 -1.96248,0.12534 -0.96036,-0.81422 v -1.3779 l 0.77246,-0.85598 0.81422,-0.0418 -0.33404,-0.77249 -0.50105,-0.73068 -0.98125,-0.81424 1.25265,0.14623 1.16913,1.12737 0.75159,1.67022 0.83509,1.96246 0.79333,0.43839 0.79334,-0.0836 0.45931,-0.29228 0.0209,-0.35491 -0.0836,-0.27141 0.43844,0.41754 0.14622,0.68896 -0.41754,0.35491 -0.16694,0.3758 1.02299,0.14623 1.89985,0.4593 0.41754,-0.43843 0.0209,-0.93947 -0.56368,-1.62844 -1.62842,-2.69319 -2.23389,-2.15036 -1.79545,-1.5658 -2.23388,-1.50315 -2.94371,-1.69107 -2.5679,-1.60757 -3.29862,-1.31527 -3.98757,-1.23176 -1.2944,-0.31315 0.89772,1.62842 1.25264,1.81633 1.2944,1.77458 -2.77668,-0.16694 -3.57002,0.48018 -2.86021,0.77248 -0.96018,0.47869 2.17108,0.46077 3.06895,1.16913 2.48442,1.31527 1.23175,0.81422 -2.46353,1.37791 -2.65141,1.6493 -0.89773,0.98125 1.39878,0.31315 2.81844,0.85598 4.71828,1.58668 3.92494,1.98335 z"
         style="fill:#f2f2f2;fill-opacity:1;stroke:none;stroke-width:0.47240028px;stroke-linecap:butt;stroke-linejoin:miter;stroke-opacity:1" />
      <path
         inkscape:connector-curvature="0"
         id="path5220"
         d="m 107.96294,183.34143 -1.86006,1.15149 -5.66881,1.00385 -7.145066,-0.38384 -6.229774,-1.50577 -5.048774,-2.95249 -4.694482,-3.74968 5.34403,-0.79719 4.960197,-2.03721 3.838253,-2.27343 1.240049,2.89344 2.539159,3.07062 3.21822,2.50961 4.015408,1.77149 z"
         style="fill:#c6bbbd;fill-opacity:0.88475976;stroke:none;stroke-width:0.47240028px;stroke-linecap:butt;stroke-linejoin:miter;stroke-opacity:1" />
      <path
         inkscape:connector-curvature="0"
         id="path5222"
         d="m 140.73571,181.8947 4.39923,1.74199 3.77921,1.15145 2.80487,1.15149 1.44673,1.6534 -2.45058,-1.15147 -1.41721,-0.1182 0.50193,1.68293 0.17712,0.79717 -1.26957,-1.47625 -1.94865,-1.15147 -3.18871,-0.32477 -2.56867,0.91527 1.91912,-2.27343 -2.50963,-1.15147 -1.21051,-0.73812 z"
         style="fill:#c5b67f;fill-opacity:1;stroke:none;stroke-width:0.47240028px;stroke-linecap:butt;stroke-linejoin:miter;stroke-opacity:1" />
      <path
         inkscape:connector-curvature="0"
         id="path5224"
         d="m 125.88463,181.56992 2.92297,-0.26571 3.74968,2.06673 3.30682,1.38769 2.2439,1.44671 1.56482,1.62391 0.62001,1.29907 -1.74197,-1.44669 -2.30295,-1.24007 -1.06289,-0.44288 0.79717,2.12579 -0.0591,1.15149 -0.73813,0.91528 -0.17711,-1.35816 -1.35816,-2.06673 -1.4172,-1.26958 -2.53914,-0.0295 -2.92298,0.0295 2.39152,-1.6239 z"
         style="fill:#c5b67f;fill-opacity:1;stroke:none;stroke-width:0.47240028px;stroke-linecap:butt;stroke-linejoin:miter;stroke-opacity:1" />
      <path
         inkscape:connector-curvature="0"
         id="path5230"
         d="m 155.73442,164.47494 1.38769,1.3877 1.00385,2.03722 -0.0591,1.83053 -1.03336,1.62388 -1.88962,1.0629 -0.14765,-1.74196 -1.09243,-2.00772 -2.33248,-1.74195 -2.95249,-1.21054 -1.35815,-0.29526 -0.44288,0.0591 0.76765,1.44673 1.0629,2.53914 1.09242,2.12582 0.26573,0.20666 0.29524,-1.0629 -0.0885,-2.95249 1.44673,0.56097 -0.85623,2.27344 -0.50193,1.56482 -0.41335,0.32477 -1.24005,-1.71246 -2.30294,-4.51731 -1.00385,-2.21439 4.10398,0.76765 2.18484,-0.41335 2.8344,-0.14765 z"
         style="fill:#c5b67f;fill-opacity:1;stroke:none;stroke-width:0.47240028px;stroke-linecap:butt;stroke-linejoin:miter;stroke-opacity:1" />
      <path
         inkscape:connector-curvature="0"
         id="path5236"
         d="m 155.68143,165.99732 0.34447,-0.17748 -0.25052,-0.36535 -0.65763,-0.55324 -1.57625,0.0107 -1.16913,0.29228 0.68895,0.34447 1.12738,0.21919 z"
         style="fill:#000000;fill-opacity:1;stroke:none;stroke-width:0.47240028px;stroke-linecap:butt;stroke-linejoin:miter;stroke-opacity:1" />
      <path
         inkscape:connector-curvature="0"
         id="path5255"
         d="m 148.20629,160.37642 0.34448,0.51155 0.20877,0.4593 -0.81421,-0.0418 -0.49063,-0.073 0.15659,-0.6994 0.41754,-0.2714 z"
         style="fill:#640024;fill-opacity:1;stroke:none;stroke-width:0.47240028px;stroke-linecap:butt;stroke-linejoin:miter;stroke-opacity:1" />
      <path
         inkscape:connector-curvature="0"
         id="path5253"
         d="m 147.68436,161.72307 v -0.72026 l 0.24009,-0.52194 0.28184,-0.10445 -0.0521,-0.77246 -0.74114,0.0627 -0.34448,0.24009 -0.24009,0.36536 -0.10445,0.91859 0.26096,0.41755 0.25053,0.16694 z"
         style="fill:#c5b67f;fill-opacity:1;stroke:none;stroke-width:0.47240028px;stroke-linecap:butt;stroke-linejoin:miter;stroke-opacity:1" />
      <ellipse
         ry="0.28235906"
         rx="0.24531747"
         cy="161.07101"
         cx="148.31412"
         id="path5257"
         style="opacity:1;fill:#0b0b0b;fill-opacity:1;stroke:none;stroke-width:0.37683046;stroke-opacity:1" />
    </g>
  </g>
</svg>
