<?xml version="1.0" encoding="UTF-8" standalone="no"?>
<!-- Created with Inkscape (http://www.inkscape.org/) -->

<svg
   xmlns:osb="http://www.openswatchbook.org/uri/2009/osb"
   xmlns:dc="http://purl.org/dc/elements/1.1/"
   xmlns:cc="http://creativecommons.org/ns#"
   xmlns:rdf="http://www.w3.org/1999/02/22-rdf-syntax-ns#"
   xmlns:svg="http://www.w3.org/2000/svg"
   xmlns="http://www.w3.org/2000/svg"
   xmlns:xlink="http://www.w3.org/1999/xlink"
   xmlns:sodipodi="http://sodipodi.sourceforge.net/DTD/sodipodi-0.dtd"
   xmlns:inkscape="http://www.inkscape.org/namespaces/inkscape"
   width="135.5383mm"
   height="106.74115mm"
   viewBox="0 0 135.5383 106.74115"
   version="1.1"
   id="svg8"
   inkscape:version="0.92.4 (5da689c313, 2019-01-14)"
   sodipodi:docname="allies.svg">
  <defs
     id="defs2">
    <linearGradient
       id="linearGradient2723-6">
      <stop
         style="stop-color:#e70000;stop-opacity:1"
         offset="0"
         id="stop4633" />
      <stop
         style="stop-color:#ff8c00;stop-opacity:0"
         offset="1"
         id="stop4635" />
    </linearGradient>
    <linearGradient
       id="linearGradient2723">
      <stop
         style="stop-color:#003300;stop-opacity:1;"
         offset="0"
         id="stop4560" />
      <stop
         style="stop-color:#000000;stop-opacity:0;"
         offset="1"
         id="stop4562" />
    </linearGradient>
    <linearGradient
       id="linearGradient2723-6-2">
      <stop
         id="stop2747"
         offset="0"
         style="stop-color:#e70000;stop-opacity:1" />
      <stop
         style="stop-color:#ff8c00;stop-opacity:1"
         offset="0.10965648"
         id="stop4640" />
      <stop
         style="stop-color:#ffef00;stop-opacity:1"
         offset="0.37289083"
         id="stop4638" />
      <stop
         id="stop4642"
         offset="0.7225467"
         style="stop-color:#00811f;stop-opacity:1" />
      <stop
         style="stop-color:#0044ff;stop-opacity:1"
         offset="0.85269064"
         id="stop4644" />
      <stop
         id="stop2749"
         offset="1"
         style="stop-color:#760089;stop-opacity:1" />
    </linearGradient>
    <linearGradient
       id="linearGradient2723-0">
      <stop
         id="stop2742"
         offset="0"
         style="stop-color:#003300;stop-opacity:1;" />
      <stop
         id="stop2744"
         offset="1"
         style="stop-color:#000000;stop-opacity:0;" />
    </linearGradient>
    <linearGradient
       id="linearGradient2723-6-7"
       osb:paint="gradient">
      <stop
         style="stop-color:#00d400;stop-opacity:1;"
         offset="0"
         id="stop2719" />
      <stop
         style="stop-color:#000000;stop-opacity:0;"
         offset="1"
         id="stop2721" />
    </linearGradient>
    <linearGradient
       inkscape:collect="always"
       xlink:href="#linearGradient2723-6-2"
       id="linearGradient4631"
       gradientUnits="userSpaceOnUse"
       x1="37.171307"
       y1="99.53688"
       x2="172.70961"
       y2="99.403244" />
  </defs>
  <sodipodi:namedview
     id="base"
     pagecolor="#ffffff"
     bordercolor="#666666"
     borderopacity="1.0"
     inkscape:pageopacity="0.0"
     inkscape:pageshadow="2"
     inkscape:zoom="1.8101934"
     inkscape:cx="249.00744"
     inkscape:cy="59.954441"
     inkscape:document-units="mm"
     inkscape:current-layer="layer1"
     showgrid="false"
     inkscape:window-width="2560"
     inkscape:window-height="1346"
     inkscape:window-x="-11"
     inkscape:window-y="-11"
     inkscape:window-maximized="1" />
  <metadata
     id="metadata5">
    <rdf:RDF>
      <cc:Work
         rdf:about="">
        <dc:format>image/svg+xml</dc:format>
        <dc:type
           rdf:resource="http://purl.org/dc/dcmitype/StillImage" />
        <dc:title />
      </cc:Work>
    </rdf:RDF>
  </metadata>
  <g
     inkscape:label="Layer 1"
     inkscape:groupmode="layer"
     id="layer1"
     transform="translate(-37.171308,-19.461112)">
    <g
       id="g4569"
       transform="translate(0,-28.797155)">
      <path
         inkscape:connector-curvature="0"
         id="path5216"
         d="m 113.20366,108.93556 -2.27948,-3.56032 -4.255,-4.68919 -6.27397,-5.81807 -7.359432,-5.839779 -4.862861,-4.081335 -4.68919,-4.36356 -4.732621,-5.470719 -4.276712,-6.968672 -1.563068,-5.774654 -0.521023,-5.383885 0.564441,-3.733986 1.172309,-4.993121 -2.344607,2.388014 -2.561684,4.472101 -1.12888,3.386643 -0.521023,4.34184 0.260506,4.558938 0.911792,3.56031 0.868363,2.909037 1.259145,3.169553 0.390758,0.91178 -1.780156,-2.388014 -2.127495,-3.082705 -1.563068,-3.169553 -1.30255,-3.473475 -0.694705,-2.995871 -0.477606,-3.690564 -0.173669,-2.648529 0.08686,-1.780156 -1.215716,2.822198 -1.042045,4.689193 -0.303923,6.425929 1.30255,5.383896 2.257761,5.123366 1.736738,2.431443 -1.476233,-1.042045 -2.648519,-2.08409 -2.561695,-3.647147 -1.389385,-3.647146 -1.085463,-2.778782 -0.56444,5.383883 0.732906,4.793398 1.478383,3.657483 2.397175,3.301019 2.436469,2.082796 2.043488,1.650508 -2.515058,-0.275084 -4.244179,-2.043491 -2.908048,-2.711551 1.729108,6.051876 3.694011,5.816088 4.086977,4.558552 4.637147,4.00838 1.532625,0.98246 1.8863,5.73748 3.811892,6.24838 4.401369,5.03013 6.091172,4.67645 4.401369,2.35786 4.794335,1.13965 -2.554351,2.23997 -3.890494,2.90806 -4.519264,2.12208 -6.130465,2.08279 -2.27928,0.47158 2.318574,3.41891 3.379618,2.55436 4.440663,1.84701 8.488346,1.21823 4.872938,-0.66806 1.53262,-0.62877 3.34032,-4.83364 2.51507,1.25752 2.39717,0.58948 1.02175,-0.0196 1.67015,1.29684 -0.70736,0.55016 -0.7663,1.15929 0.15719,1.47367 0.19648,1.33613 0.23579,0.39298 0.27509,-0.94315 0.8449,-0.90385 1.2379,-0.62876 1.25752,-0.0785 1.29683,0.27509 0.80561,1.11999 0.11787,1.04139 0.0196,0.88419 -0.78595,1.23791 -0.80562,1.00209 -0.21614,0.25542 1.57192,-0.37332 1.90595,-1.27719 0.72701,-1.45402 0.0393,-1.59155 0.8842,0.39297 0.53052,0.9628 0.31438,1.10035 -0.13754,1.25752 -0.31438,1.10035 1.11998,-1.33614 0.74667,-1.51297 0.19648,-1.43435 v -0.56983 l 0.29474,-0.56982 0.64841,-0.23579 0.47158,-0.1572 h 0.86455 l 1.06104,0.33403 0.55018,0.80561 0.31439,0.82526 -0.0785,0.62876 -0.53052,1.0414 -0.53053,0.80562 2.18104,-1.06107 0.92349,-1.04138 0.17685,-0.8842 0.0196,-0.64841 0.62876,0.29474 0.62876,0.60911 0.29475,1.06103 -0.0786,0.8842 0.059,0.33404 0.51088,-1.08069 0.13753,-1.67015 -0.33402,-2.0042 -1.00211,-1.0414 -1.96488,-0.80561 -2.967,-1.11999 -2.31857,-1.04139 -0.90386,-2.67227 -1.55227,-2.88839 -1.29682,-2.27926 -1.41473,-2.2007 1.53263,0.45194 2.71156,1.11998 3.5761,1.74876 0.66806,1.27719 1.51297,1.4933 0.82525,0.35368 0.43229,-1.10033 0.66806,-1.31648 0.0196,-0.37332 0.25543,-0.1572 0.0983,0.74666 -0.0785,1.61121 -0.29474,1.61122 1.45402,-0.72701 2.33823,-1.57191 1.23789,-1.51297 0.11787,-1.35578 -0.21615,-1.70945 -1.39507,-1.92562 -0.31439,-0.13753 0.0983,-1.6112 -0.62876,-1.29686 -1.49331,-1.88629 -2.04349,-1.9256 -1.92561,-1.51297 2.10244,-1.15928 2.84909,-2.63295 2.51507,-3.45823 2.33823,-4.42099 2.18103,-3.73332 2.04349,-3.49751 2.7312,-3.18314 2.35789,-2.10244 4.24416,-2.986628 3.98873,-2.927691 1.82736,-1.355784 -6.36626,0.550171 2.45612,-1.002096 3.12417,-1.827353 3.20279,-3.124176 1.55227,-2.102434 1.04139,-2.023848 0.51088,-1.414719 -1.23789,1.119981 -1.84701,1.611214 -2.45611,1.355784 -1.21823,0.353671 2.22034,-2.770502 1.68979,-3.340311 0.98245,-2.809807 0.53052,-3.418913 -2.90804,3.615408 -2.23998,2.475765 -1.47367,1.041392 2.04349,-2.868745 2.35787,-4.185231 1.51298,-4.5782 0.39298,-4.165577 -0.0785,-3.124188 -1.23789,-3.615396 -0.78596,-1.434379 -0.0393,2.593665 -0.78597,4.519252 -1.84699,4.381716 -1.33613,2.397174 -3.12418,3.929788 -4.59786,4.342421 -6.09118,4.126285 -9.21535,4.853285 -5.541,3.418911 -4.40137,3.53682 -3.87084,4.204869 -2.35787,3.615406 -1.68982,2.8491 z"
         style="fill:#000000;fill-opacity:1;stroke:none;stroke-width:0.31438318px;stroke-linecap:butt;stroke-linejoin:miter;stroke-opacity:1" />
      <path
         inkscape:connector-curvature="0"
         id="path5210"
         d="m 72.087533,69.750448 0.982444,2.241209 1.796042,2.947344 2.763133,3.76093 2.624981,3.070147 3.638127,3.699523 3.592072,3.285059 3.745579,3.024102 6.631514,5.173201 4.160055,3.361807 3.82235,3.73023 2.79382,3.19295 2.21052,3.31577 1.28945,2.82453 0.87499,2.60962 0.18422,1.13596 3.42321,0.53728 1.55042,0.47586 1.38157,0.53728 -0.046,-0.29166 -0.18421,-0.41447 -0.52194,-0.55262 -1.19735,-0.95175 -1.78069,-0.90569 -0.89034,-0.35306 0.42981,-2.17982 1.53508,-4.06794 1.94954,-4.03725 1.71929,-2.57893 1.2434,-1.67322 1.79605,-1.857438 1.73463,-1.765341 1.85744,-1.657875 4.29821,-3.146907 2.97805,-1.734633 2.01094,-1.135949 3.54602,-1.888141 4.58988,-2.563571 3.77628,-2.210521 2.39471,-1.765324 1.48902,-1.335524 1.22807,-1.166654 0.95174,-1.166654 -0.49123,1.381567 -1.44297,1.857437 -2.48682,2.517531 -3.43857,2.54822 -5.15784,3.192948 -3.82234,2.287263 -1.99559,1.335513 -1.81139,1.320174 -1.93419,1.703927 -1.81139,1.765328 -1.67323,2.149109 -1.04385,1.642525 -1.16666,1.9956 -1.13596,2.34866 -0.90568,2.67102 -0.58333,2.24122 -0.73684,3.08549 -0.24561,3.51532 -0.0307,2.11842 0.18421,2.99339 -1.65789,-0.76754 -2.99339,-0.92105 -3.73023,-0.64473 0.61403,1.36622 1.87279,2.79383 -1.32017,0.0921 -2.42541,0.78289 -1.81138,0.78288 -1.64254,0.69079 -0.27631,0.61402 1.21271,0.0921 1.65788,0.36842 2.93199,1.04385 1.36621,0.61402 -2.60963,1.05921 -2.36401,1.87279 -0.38377,0.55262 4.26751,0.9057 -3.99118,0.50657 -2.7785,0.19956 -2.28725,0.0921 -0.0615,0.56797 5.06575,1.05921 1.25877,2.50217 1.04384,2.68638 0.53727,2.19515 -2.45611,0.27632 -2.41006,-0.21492 -2.70173,-1.1206 3.53066,0.18422 -0.30701,-0.49123 -3.19296,-0.875 -3.08549,-1.35086 -2.99339,-2.13375 -0.19956,-0.53728 3.0855,0.84429 3.88372,0.69079 1.12062,0.1535 -0.0153,-0.33772 -2.24121,-1.18201 -1.9649,-1.44295 -2.19515,-1.94956 -1.91885,-2.28725 2.74778,-1.50437 2.64034,-2.48683 1.2127,-1.65788 1.21272,-2.76314 0.42981,-2.4868 -0.0615,-2.64034 -0.3991,-2.71707 -0.875,-3.16227 -1.44297,-2.85523 -2.22585,-3.00875 -4.282863,-4.03724 -3.853033,-3.100851 -3.162257,-2.317966 -3.410964,-2.537883 -2.322887,-1.780157 -2.952453,-2.518266 -3.017579,-3.234679 -2.67024,-3.364932 -1.606485,-2.583391 -1.30255,-2.605114 -1.324271,-2.930744 -0.998628,-2.952454 z"
         style="fill:#7a002b;fill-opacity:1;stroke:none;stroke-width:0.31438318px;stroke-linecap:butt;stroke-linejoin:miter;stroke-opacity:1" />
      <path
         inkscape:connector-curvature="0"
         style="fill:url(#linearGradient4631);fill-opacity:1;stroke:none;stroke-width:0.36864653px;stroke-linecap:butt;stroke-linejoin:miter;stroke-opacity:1"
         d="m 94.168824,48.855451 c -2.32764,3.380552 1.41487,9.757706 -5.013427,5.260452 -5.312524,0.867918 -3.967264,4.215569 -6.807041,5.125294 0.623858,3.100712 -2.132558,-2.125676 -3.203294,1.928553 -3.512073,4.487964 4.586475,-1.199143 7.603491,-1.624372 5.028123,-2.056316 7.482559,-1.787407 7.513042,1.777556 0.447388,-2.81528 -0.816786,-4.763552 5.285522,-4.512168 4.637033,0.06147 4.462353,7.00821 3.626643,1.465285 -4.49707,-2.307117 6.7107,-1.730133 -0.41746,-2.829057 -2.25253,1.022067 -6.096514,-4.824941 -8.587476,-6.591543 0,0 0,0 0,0 m 6.553036,5.331556 c 2.14838,1.753938 11.48427,0.716618 3.60213,0.217734 -2.04409,-0.578042 -1.28289,-1.585004 -3.60213,-0.217734 0,0 0,0 0,0 m 4.66967,2.290863 c -1.86711,3.734803 2.4415,4.002509 6.8323,2.361984 -1.36878,-3.62637 -1.28031,-4.266619 -5.43326,-2.368496 -0.46635,0.0021 -0.93268,0.0044 -1.39904,0.0065 0,0 0,3e-6 0,3e-6 m 5.27647,-1.782878 c 3.61885,-0.05108 -0.74399,-2.929939 0,0 0,0 0,0 0,0 m 0.59381,1.994089 c 5.5403,2.124257 9.06825,-4.644816 2.58397,-1.060383 -0.88383,0.324482 -1.74796,0.673543 -2.58397,1.060383 0,0 0,0 0,0 m 6.53714,-2.225813 c 2.52547,0.546756 -0.76733,-2.583369 0,0 0,0 0,0 0,0 m 1.07941,-0.119049 c -0.0736,0.364065 0.3852,-0.03432 0,0 0,0 0,0 0,0 m -3.31806,2.848013 c -8.69308,3.479232 9.00244,9.304658 5.90675,2.825973 -1.22798,-1.864025 -3.22998,-2.549657 -5.90675,-2.825973 0,0 0,0 0,0 m 3.29455,0.599377 c 2.62278,0.04807 8.2659,3.445149 8.66352,1.478049 -1.70884,-3.696269 -0.36221,2.988111 -4.57632,-1.391666 -1.98926,-3.4415 -9.49877,-1.121484 -4.0872,-0.08638 0,0 0,0 0,0 m 8.52846,2.413861 c -0.58343,1.874305 -3.18662,7.472144 1.43492,4.265423 3.84112,5.377488 10.8359,0.495255 10.71909,4.627221 -2.76701,0.24075 -7.72202,0.635358 -1.48951,2.903193 3.61525,-1.671166 3.67657,-6.098646 -2.64057,-8.235992 -6.28266,-2.684025 8.6003,-3.252523 0.22565,-2.614678 -1.00087,2.458686 -8.3759,-1.626456 -5.55363,0.980201 -1.6374,-1.215704 -0.50742,-1.416233 -2.69595,-1.925368 0,0 0,0 0,0 m 1.69681,0.649861 c 0.0611,0.06415 0.0984,-0.06258 0,0 0,0 0,0 0,0 m 11.69169,6.119308 c 7.84997,6.631867 0.0323,-5.141095 0,0 0,0 0,0 0,0 m 3.05379,2.163004 c -0.50099,2.892772 2.15222,1.2706 3.72459,4.142115 3.88443,1.078972 -5.6786,-4.149524 0.23107,-4.047705 1.7228,-1.436939 6.50413,-0.728192 0.96582,-1.436649 -3.16964,-0.954093 -1.77557,4.588039 -4.92144,1.342264 0,0 -4e-5,-2.5e-5 -4e-5,-2.5e-5 m 8.39102,-0.426616 c 0,0 0.71608,0.461806 0.71608,0.461806 0,0 -0.71608,-0.461806 -0.71608,-0.461806 m -3.07215,4.910135 c 2.57121,3.537697 2.70187,-0.53924 0,0 0,0 0,0 0,0 m 1.58196,0.190569 c 4.88325,1.117452 3.75835,-1.49138 0,0 0,0 0,0 0,0 m 3.88432,0.264657 c 4.50397,3.603101 5.40065,-0.155852 0,0 0,0 0,0 0,0 m 2.43821,0.157773 c 4.23844,0.790505 -1.79621,-1.470434 0,0 0,0 0,0 0,0 m -6.17552,1.071989 c -0.2148,3.490455 -2.44117,6.124219 1.85062,4.432497 5.85253,3.216439 0.46318,-1.79863 -1.6797,-4.252309 0,0 -0.17092,-0.180188 -0.17092,-0.180188 m 4.97744,5.712019 c 3.76735,6.371403 2.75076,-2.852913 0,0 0,0 0,0 0,0 m 1.46379,-0.755007 c 0.94633,-0.914287 4.97406,2.515725 1.87972,-1.605087 -1.94474,-1.939573 -3.40532,-0.825261 -1.87972,1.605087 0,0 0,0 0,0 m 1.39285,2.407236 c 2.80519,4.629161 9.91285,13.395571 3.9809,3.953785 -0.0163,-1.84104 -2.41736,-3.035138 -3.9809,-3.953785 0,0 0,0 0,0 m -0.81802,1.143071 c 1.49083,5.152548 1.45085,21.354977 6.50355,13.260624 -0.97449,-4.685022 -3.91545,-9.097828 -6.50355,-13.260624 0,0 0,0 0,0 m 5.88546,10.621032 c 1.41039,4.528663 2.09585,4.416872 3.28733,9.528995 -0.20666,2.2168 6.21353,-4.071349 2.81448,-3.6297 -0.41612,-4.090956 -2.848,-11.061053 -4.65873,-5.901129 -0.3803,-0.31621 -1.37389,-0.78412 -1.44308,0.0019 0,0 0,0 0,0 m 3.61792,10.830619 c -0.0613,1.40615 -6.72242,-3.0893 -3.00729,1.9382 -3.28608,-1.63235 5.79102,6.99419 3.96825,2.98717 -0.27029,-1.62234 -0.55591,-3.33134 -0.96095,-4.92538 0,0 -1e-5,1e-5 -1e-5,1e-5 m 1.18692,6.52022 c -1.26043,-1.14238 -1.25167,2.91444 0.32587,3.0959 0.89434,1.22306 -1.33218,7.47801 2.73545,7.20594 0.26999,1.27827 -1.21398,-13.40484 -2.61967,-9.42416 0,0 -0.44165,-0.87768 -0.44165,-0.87768 m 3.76643,10.83189 c 0,0 0.36338,0.33886 0.36338,0.33886 0,0 -0.36338,-0.33886 -0.36338,-0.33886 m -3.23085,-1.8731 c -3.07231,-2.07508 -3.49468,-2.33098 -1.50298,-6.54945 -5.53022,2.24295 -1.74498,17.02316 1.16456,12.58651 0.1739,-1.97038 0.33216,-4.05904 0.33842,-6.03706 0,0 0,0 0,0 m -0.53624,7.65095 c -0.53548,3.77102 -0.90054,5.91167 -1.80876,8.92616 -0.73113,2.39284 -2.7294,8.35257 -3.10153,8.25192 -6.77926,4.22542 7.77297,4.43065 7.12631,-3.82305 -2.05195,5.86739 -7.21735,-0.91867 -1.8964,-4.49754 4.45507,-1.76853 3.60222,-7.15786 1.08003,-10.38839 -0.34705,3.43819 0.72924,5.01413 -1.39963,1.53091 0,0 -2e-5,-1e-5 -2e-5,-1e-5 m -1.14411,6.3329 c -1.3218,-3.91143 -3.16078,4.82023 0,0 0,0 0,0 0,0 m -0.71742,-17.07652 c 0,0 0.31579,-0.43647 0.31579,-0.43647 0,0 -0.31579,0.43647 -0.31579,0.43647 m 0.31579,-0.43647 c 2.88519,-0.39626 2.4922,-2.80286 0,0 0,0 0,0 0,0 m -4.06439,-12.66386 c -0.34104,-4.917655 -4.59396,-6.256091 -1.29578,-1.13707 0,0 0.68263,0.7381 0.68263,0.7381 0,0 0.61315,0.39897 0.61315,0.39897 m -2.76497,-4.36372 c 0.1949,-1.785361 -0.66347,0.50342 0,0 0,0 0,0 0,0 m -0.2374,0.0189 c -3.40215,-2.196097 -0.81388,1.65361 0,0 0,0 0,0 0,0 m 0.16156,-0.686837 c 0.61634,-2.484663 -0.56663,-3.742594 0,0 0,0 0,0 0,0 m 5.16489,0.182861 c 0,0 -0.0215,0.242426 -0.0215,0.242426 0,0 0.0215,-0.242426 0.0215,-0.242426 M 146.41073,72.736677 c 0.44387,1.220621 2.1251,3.578946 0,0 0,0 0,0 0,0 M 77.887693,63.244388 c -1.254819,0.526808 -0.891314,0.647627 0,0 0,0 0,0 0,0 m -0.827952,0.42068 c -1.313209,-1.641875 -2.080866,1.673844 0,0 0,0 0,0 0,0 m -0.996586,0.550659 c -3.717713,1.919303 -8.601643,4.981373 -2.968548,5.388805 2.048477,4.82647 2.624921,-3.630065 2.968548,-5.388805 0,0 0,0 0,0 m -5.899718,3.712795 c -1.353612,-0.859393 -2.935322,1.722967 -3.570224,-1.019032 2.496773,-0.217489 0.167821,-5.494498 0.333359,-5.435577 -2.274379,4.461644 -8.949985,7.454164 -7.383746,11.441315 -0.950821,3.91585 -3.90797,4.806617 -3.695919,6.026671 0.261766,-3.838091 -8.029003,0.897455 -4.081923,3.735593 1.681392,4.454969 3.798434,-0.393858 6.626182,-3.766688 4.042607,-3.166083 0.739369,-2.173241 0.545555,-2.40838 1.171891,-1.780869 2.041391,-3.335069 3.718934,-6.274894 0.204268,3.454524 2.057578,3.301862 1.691618,-0.655943 2.258605,1.87205 2.845547,0.357539 5.816164,-1.643065 0,0 0,0 0,0 m -3.369568,2.600092 c -3.155432,1.558889 -1.51358,3.681054 -3.318202,2.92743 -8.386241,7.090891 10.411304,0.71255 3.962341,-2.626831 0,0 -0.644139,-0.300599 -0.644139,-0.300599 m -6.826181,5.305615 c 0.463916,0.741852 3.153891,-3.141556 0,0 0,0 0,0 0,0 m -5.844185,8.957863 c -3.233779,3.403381 1.457051,1.361961 0,0 0,0 0,0 0,0 m 0.581116,0.760686 c -0.263394,1.918477 6.457646,-3.6601 0,0 0,0 0,0 0,0 m 0.292822,0.821438 c 0,0 -0.290664,0.64383 -0.290664,0.64383 0,0 0.290664,-0.64383 0.290664,-0.64383 M 52.7947,86.97008 c -3.525986,3.257727 -10.890044,4.467701 -4.816123,5.722744 2.11582,2.631116 3.042592,-3.613887 4.816123,-5.722744 0,0 0,0 0,0 m -3.223469,6.380592 c -3.812055,6.507062 3.281589,0.411174 1.087484,0.295499 -0.391512,-0.297033 -0.602685,-0.01024 -1.087484,-0.295499 0,0 0,0 0,0 m 0.74844,0.02635 c 0.174387,0.03889 -0.05111,-0.185175 0,0 0,0 0,0 0,0 m -2.154148,3.486527 c -3.006916,0.160368 -0.635634,4.319571 0,0 0,0 0,0 0,0 m -0.748489,2.215057 c -0.427711,0.53291 0.333684,0.220912 0,0 0,0 0,0 0,0 m -0.09849,0.292743 c -1.53964,0.308926 -1.638521,-2.705293 -4.304532,1.720911 -0.507896,0.71724 -2.280282,8.04431 -0.129268,3.78749 3.510988,1.68146 -0.694339,9.34817 -1.576473,2.55002 -4.399704,-4.7879 4.52479,8.63034 -1.915131,8.42605 -5.528146,3.68436 0.828685,9.81196 2.233124,9.44643 -3.472595,-4.80225 4.36195,-3.16835 2.964662,-9.61141 -1.054981,-4.22716 3.646734,-4.57827 0.504269,-6.30809 0.409174,-3.57789 1.078878,-6.5969 2.223349,-10.011401 0,0 0,0 0,0 m -2.724605,20.249521 c -0.464839,2.86023 1.560696,1.41401 0,0 0,0 0,0 0,0 m 0.09144,1.68033 c -1.956131,-0.0129 0.580544,1.68873 0,0 0,0 0,0 0,0 m 0.03504,0.64779 c -0.553957,4.84698 2.037873,-0.21994 0,0 0,0 0,0 0,0 m 0.973736,0.3405 c 2.437089,1.63421 6.312319,1.28535 1.412477,-0.31351 0,0 -0.927589,-0.31133 -0.927589,-0.31133 0,0 -0.484888,0.62484 -0.484888,0.62484 m -0.769052,1.78811 c -1.10005,3.63344 -2.426899,8.03545 1.207373,8.51212 -0.880596,4.27313 -0.889649,14.19007 3.623698,9.28755 -2.516144,-5.98409 -4.204464,-11.33839 -4.831071,-17.79967 0,0 0,0 0,0 m 4.831071,17.79967 c 0.07043,0.19093 0.347835,-0.36799 0,0 0,0 0,0 0,0 m -3.466107,1.3805 c -1.592884,0.80355 0.0342,7.06884 1.848719,3.3606 0,0 -1.033127,-1.66897 -1.033127,-1.66897 0,0 -0.815592,-1.69163 -0.815592,-1.69163 m -0.304483,4.67571 c -4.577552,-1.09292 -0.364599,5.64908 0,0 0,0 0,0 0,0 m -2.466784,0.21997 c -0.220215,-2.84763 -0.796486,-0.53168 0,0 0,0 0,0 0,0 m 1.792321,-4.60013 c -1.030039,-2.60556 -2.017184,1.94303 0,0 0,0 0,0 0,0 m -1.697487,-12.25108 c -3.387778,1.52829 -2.812208,-8.90329 -5.280159,-3.46634 -3.748633,7.78217 6.238032,12.69212 5.280159,3.46634 0,0 0,0 0,0 m -4.224381,-5.77407 c 0,0 0.04523,-0.0782 0.04523,-0.0782 0,0 -0.04523,0.0782 -0.04523,0.0782 m 0.04523,-0.0782 c 1.656602,3.7499 2.298375,-0.517 0.227,-0.45296 0,0 -0.227,0.45296 -0.227,0.45296 m 2.874463,-23.27329 c 0.214762,-0.85757 -0.428399,0.76967 0,0 0,0 0,0 0,0 m 7.01431,-8.251198 c 0.385005,-1.372861 -1.194008,1.265927 0,0 0,0 0,0 0,0 m -4.307395,-2.627097 c -1.4025,-1.115557 -1.604465,-0.223107 0,0 0,0 0,0 0,0 m -1.098253,-0.592744 c 0.274503,-1.097813 -1.88655,-0.196766 0,0 0,0 0,0 0,0 M 55.621057,77.851054 c 1.244678,-0.117435 -0.728402,-0.906088 0,0 0,0 0,0 0,0 m -0.08776,-0.421264 c -0.173497,-3.28711 -1.57064,-5.23565 -0.736449,-0.732357 0,0 0.736449,0.732357 0.736449,0.732357 m -0.524646,-4.278468 c 4.187804,-5.503958 -1.145279,-5.3426 0,0 0,0 0,0 0,0 M 68.274092,65.98324 c 0.845055,4.074056 5.487074,-3.427009 0,0 0,0 0,0 0,0 m 7.956149,-2.7822 c 2.712866,-4.80305 -2.454654,-4.378611 -2.271402,-0.386379 0.776535,1.260903 2.418032,-1.958402 2.271402,0.386379 0,0 0,0 0,0 m 4.658716,-4.080682 c 4.389325,-1.195078 1.656169,-5.927441 0.107216,-1.374878 0,0 -0.109217,0.679314 -0.109217,0.679314 0,0 0.002,0.695564 0.002,0.695564 m -0.268427,-1.53472 c -1.289891,-1.456845 -3.983985,0.5485 0,0 0,0 0,0 0,0 m 84.795721,87.388882 c -2.05957,-0.004 1.09349,-5.19701 0,0 0,0 0,0 0,0 m 0.52446,-3.27827 c -0.22525,0.71171 -0.58637,-1.43421 0,0 0,0 0,0 0,0 M 94.838274,55.798729 c 5.057485,-0.192881 5.066103,0.822512 -0.256803,0.531597 -2.517641,1.08134 -0.851178,-0.522013 0.256803,-0.531597 0,0 0,0 0,0 m -1.801348,0.969537 c 0.194416,0.192011 -0.760784,0.733577 0,0 0,0 0,0 0,0 M 54.57302,81.081397 c 0,0 0.738698,-0.697264 0.738698,-0.697264 0,0 -0.738698,0.697264 -0.738698,0.697264 m 78.00539,-17.473511 c 5.54039,2.931267 4.31086,3.496026 0,0 0,0 0,0 0,0 m 3.42075,2.297556 c 0.65805,0.441303 -0.53517,0.220311 0,0 0,0 0,0 0,0 M 108.7561,58.099553 c 2.20739,0.721499 -1.98093,0.7448 0,0 0,0 0,0 0,0"
         id="path2853" />
      <path
         sodipodi:nodetypes="ccccccccccccccccccccccccccccccccccccccccccccccccccccccccccccccccccccccccccccccccccc"
         inkscape:connector-curvature="0"
         id="path5216-8"
         d="m 113.20366,108.93556 -2.27948,-3.56032 -4.255,-4.68919 -6.27397,-5.818071 -7.359432,-5.83978 -4.86286,-4.081335 -4.68919,-4.363559 -4.732622,-5.47072 -4.276712,-6.968672 -1.563068,-5.774654 -0.521023,-5.383885 0.564441,-3.733986 1.172309,-4.993121 -2.344607,2.388014 -2.561684,4.472102 -1.12888,3.386643 -0.521023,4.341839 0.260506,4.558938 0.911792,3.56031 0.868363,2.909037 1.259145,3.169554 0.390758,0.911779 -1.780156,-2.388014 -2.127495,-3.082705 -1.563068,-3.169553 -1.30255,-3.473475 -0.694705,-2.995871 -0.477606,-3.690564 -0.173669,-2.648528 0.08686,-1.780157 -1.215716,2.822199 -1.042045,4.689192 -0.303923,6.425929 1.30255,5.383896 2.257761,5.123367 1.736738,2.431442 -1.476233,-1.042044 -2.648519,-2.08409 -2.561695,-3.647148 -1.389385,-3.647146 -1.085463,-2.778782 -0.56444,5.383883 0.732906,4.793399 1.478383,3.657481 2.397175,3.301022 2.436469,2.082795 2.043488,1.650507 -2.515058,-0.275083 -4.244179,-2.043491 -2.908048,-2.711552 1.729108,6.051876 3.694011,5.816088 4.086977,4.558554 4.637147,4.00838 1.532625,0.98246 1.8863,5.73748 3.811892,6.24838 4.401369,5.03013 6.091171,4.67645 4.401369,2.35786 4.794337,1.13965 -2.554351,2.23997 -3.890493,2.90806 -4.519266,2.12208 -6.130465,2.08279 -2.27928,0.47158 2.318574,3.41891 3.379618,2.55436 4.440662,1.84701 8.488348,1.21823 4.872937,-0.66806 1.53262,-0.62877 3.34032,-4.83364 15.85667,-4.73531 -1.29682,-2.27926 -1.41473,-2.2007 1.53263,0.45194 2.71156,1.11998 -1.11992,-40.319638 -3.87084,4.204867 -2.35787,3.615411 -1.68982,2.8491 z"
         style="fill:#000000;fill-opacity:1;stroke:none;stroke-width:0.31438318px;stroke-linecap:butt;stroke-linejoin:miter;stroke-opacity:1" />
      <path
         inkscape:connector-curvature="0"
         id="path4665"
         d="m 68.87341,79.932033 0.586149,1.063753 1.563067,2.21433 2.496557,3.08272 3.364932,3.668854 3.169553,2.95245 6.143703,4.732621 6.751573,4.493809 3.699772,2.67097 2.809195,2.73243 2.394719,3.08549 1.24341,2.39472 0.66008,2.50218 -0.0767,2.22586 -0.46052,1.32015 -0.66008,1.10526 -1.1513,1.25875 -1.412267,1.04386 -1.918853,0.96711 -2.456123,0.1842 -1.995591,-0.27632 -1.50437,-0.56798 -1.934196,-0.90569 -2.348671,-1.36621 -2.793826,-1.88814 -2.087702,-1.87279 -1.765339,-2.21051 -1.842086,-2.56358 -0.859641,-1.68857 1.274104,0.59868 2.425419,1.0592 2.25656,0.87498 1.48903,0.29167 0.429815,0.0307 -1.442974,-1.04385 -4.14469,-3.14691 -2.71709,-2.60963 -3.423215,-3.86837 -3.223652,-3.975847 -1.903493,-2.809191 -0.291672,-0.506572 1.473677,1.028498 3.054807,2.410069 3.070146,1.949543 3.223654,2.10306 3.039442,1.81138 1.9649,1.0285 0.936388,0.50657 0.36842,0.15351 0.168858,0.092 h 0.18421 l -0.414475,-0.49122 -0.706124,-0.64474 -1.811394,-1.58113 -1.258752,-1.35085 -1.688592,-1.88815 -2.087701,-2.333306 -2.732432,-3.515327 -1.734634,-2.578923 -1.842086,-3.269708 -1.043851,-2.133747 -1.151301,-2.471472 -0.82895,-1.842085 -0.47587,-1.550429 z"
         style="fill:#7a002b;fill-opacity:1;stroke:none;stroke-width:0.31438318px;stroke-linecap:butt;stroke-linejoin:miter;stroke-opacity:1" />
      <path
         inkscape:connector-curvature="0"
         id="path5212"
         d="m 127.76468,119.13378 0.84429,-1.07455 1.13596,-1.85744 0.89033,-1.88814 1.04386,-2.67103 0.67543,-2.68638 0.38377,-1.33551 0.0615,-0.30703 v -0.32236 l -0.41446,-0.0921 -0.47588,0.18422 -1.47366,0.58331 -2.01095,1.30482 -0.52193,0.39911 0.19956,-0.85964 0.36841,-1.74997 1.13596,-2.56358 0.95174,-1.70394 1.35087,-1.62717 1.76534,-1.995593 2.14911,-1.673239 2.80918,-2.010943 4.1447,-2.609628 4.60522,-2.747782 3.33111,-2.087703 2.57893,-1.811381 -1.62718,2.179801 -2.59427,2.885938 -2.48683,2.317965 -2.41006,1.888141 -2.76314,1.811382 -0.87499,0.429829 -0.69078,0.353063 -0.2149,0.276312 1.65787,-0.506574 3.89909,-1.166655 3.0548,-0.56798 1.62717,-0.122805 -3.02409,1.596481 -2.79384,1.888143 -2.24121,1.980238 -1.99559,2.07235 -1.71928,2.54823 -1.62719,2.76313 -1.85743,3.59207 -2.14911,3.60742 -1.88814,1.79605 -1.98024,1.16665 z"
         style="fill:#7a002b;fill-opacity:1;stroke:none;stroke-width:0.31438318px;stroke-linecap:butt;stroke-linejoin:miter;stroke-opacity:1" />
      <path
         inkscape:connector-curvature="0"
         id="path5214"
         d="m 114.60909,138.85948 5.23462,0.26097 0.85963,1.44296 1.01315,1.7807 0.58333,1.28945 -2.79383,-0.29166 -2.25656,-0.93639 -0.72149,-0.46053 2.70172,-0.0461 -1.79603,-1.0899 -1.79604,-1.10526 z"
         style="fill:#7a002b;fill-opacity:1;stroke:none;stroke-width:0.31438318px;stroke-linecap:butt;stroke-linejoin:miter;stroke-opacity:1" />
      <path
         sodipodi:nodetypes="cccccccccccccccccccccccccccccccccccccccccccccccccccccccccccccccc"
         inkscape:connector-curvature="0"
         id="path5218"
         d="m 126.17014,135.9566 -0.6808,-1.73674 -0.76415,-1.73673 1.19487,0.1111 1.29212,0.23619 0.54187,0.27788 0.63912,0.0417 1.25044,-0.13893 -0.31954,-0.50019 -0.63912,-0.4307 -1.30604,0.0834 -0.63911,-0.54185 v -0.917 l 0.51407,-0.56966 0.54186,-0.0278 -0.2223,-0.51408 -0.33345,-0.48627 -0.65302,-0.54187 0.83364,0.0973 0.77805,0.75026 0.50019,1.11153 0.55575,1.30601 0.52796,0.29177 0.52797,-0.0556 0.30567,-0.19452 0.0139,-0.2362 -0.0556,-0.18061 0.29178,0.27787 0.0973,0.4585 -0.27787,0.2362 -0.1111,0.2501 0.6808,0.0973 1.26435,0.30567 0.27788,-0.29178 0.0139,-0.62522 -0.37514,-1.08373 -1.08372,-1.79232 -1.48665,-1.43107 -1.19487,-1.04204 -1.48666,-1.00036 -1.95904,-1.12541 -1.70894,-1.06984 -2.19524,-0.87531 -2.65374,-0.81974 -0.86142,-0.2084 0.59744,1.08371 0.83363,1.20878 0.86142,1.18099 -1.84788,-0.1111 -2.37586,0.31955 -1.90346,0.51409 -0.63901,0.31858 1.44485,0.30663 2.0424,0.77807 1.65338,0.87531 0.81973,0.54186 -1.63948,0.917 -1.76452,1.09762 -0.59744,0.65302 0.9309,0.2084 1.87567,0.56966 3.14002,1.05594 2.61205,1.31992 z"
         style="fill:#f2f2f2;fill-opacity:1;stroke:none;stroke-width:0.31438318px;stroke-linecap:butt;stroke-linejoin:miter;stroke-opacity:1" />
      <path
         inkscape:connector-curvature="0"
         id="path5220"
         d="m 101.28464,146.31442 -1.23787,0.7663 -3.772604,0.66807 -4.755055,-0.25543 -4.145925,-1.0021 -3.359965,-1.96489 -3.124186,-2.49542 3.55646,-0.53052 3.301018,-1.35578 2.554363,-1.51297 0.825256,1.9256 1.689814,2.04349 2.141731,1.67016 2.672259,1.17893 z"
         style="fill:#c6bbbd;fill-opacity:0.88475976;stroke:none;stroke-width:0.31438318px;stroke-linecap:butt;stroke-linejoin:miter;stroke-opacity:1" />
      <path
         inkscape:connector-curvature="0"
         id="path5222"
         d="m 123.09498,145.35162 2.92769,1.15929 2.51507,0.76631 1.86664,0.76631 0.96281,1.10034 -1.63087,-0.7663 -0.94315,-0.0786 0.33403,1.11999 0.11787,0.53052 -0.84489,-0.98244 -1.29683,-0.7663 -2.1221,-0.21614 -1.70945,0.60911 1.27718,-1.51297 -1.67017,-0.76631 -0.80559,-0.49122 z"
         style="fill:#c5b67f;fill-opacity:1;stroke:none;stroke-width:0.31438318px;stroke-linecap:butt;stroke-linejoin:miter;stroke-opacity:1" />
      <path
         inkscape:connector-curvature="0"
         id="path5224"
         d="m 113.21155,145.13548 1.94525,-0.17684 2.49542,1.37543 2.20069,0.9235 1.49332,0.96279 1.04139,1.0807 0.41262,0.86455 -1.15929,-0.96279 -1.53261,-0.82525 -0.70736,-0.29474 0.53052,1.41472 -0.0393,0.76631 -0.49121,0.60912 -0.11788,-0.90385 -0.90385,-1.37543 -0.94314,-0.84491 -1.68981,-0.0197 -1.94525,0.0197 1.59157,-1.0807 z"
         style="fill:#c5b67f;fill-opacity:1;stroke:none;stroke-width:0.31438318px;stroke-linecap:butt;stroke-linejoin:miter;stroke-opacity:1" />
      <path
         inkscape:connector-curvature="0"
         id="path5230"
         d="m 133.07664,133.75873 0.92351,0.92351 0.66807,1.35577 -0.0393,1.21824 -0.68771,1.0807 -1.25754,0.70736 -0.0983,-1.15929 -0.72702,-1.33613 -1.55226,-1.15929 -1.96489,-0.8056 -0.90386,-0.19649 -0.29474,0.0393 0.51088,0.9628 0.70736,1.6898 0.72702,1.41474 0.17684,0.13753 0.19648,-0.70736 -0.059,-1.96489 0.96281,0.37333 -0.56982,1.51297 -0.33404,1.04139 -0.27509,0.21614 -0.82525,-1.13965 -1.53261,-3.00627 -0.66806,-1.47368 2.7312,0.51088 1.45401,-0.27509 1.8863,-0.0983 z"
         style="fill:#c5b67f;fill-opacity:1;stroke:none;stroke-width:0.31438318px;stroke-linecap:butt;stroke-linejoin:miter;stroke-opacity:1" />
      <path
         inkscape:connector-curvature="0"
         id="path5236"
         d="m 133.04138,134.77188 0.22924,-0.11812 -0.16671,-0.24313 -0.43767,-0.36819 -1.04899,0.007 -0.77806,0.19452 0.4585,0.22925 0.75028,0.14588 z"
         style="fill:#000000;fill-opacity:1;stroke:none;stroke-width:0.31438318px;stroke-linecap:butt;stroke-linejoin:miter;stroke-opacity:1" />
      <path
         inkscape:connector-curvature="0"
         id="path5255"
         d="m 128.06666,131.03117 0.22925,0.34044 0.13894,0.30567 -0.54187,-0.0278 -0.32651,-0.0486 0.10421,-0.46544 0.27788,-0.18063 z"
         style="fill:#640024;fill-opacity:1;stroke:none;stroke-width:0.31438318px;stroke-linecap:butt;stroke-linejoin:miter;stroke-opacity:1" />
      <path
         inkscape:connector-curvature="0"
         id="path5253"
         d="m 127.71931,131.92737 v -0.47934 l 0.15979,-0.34735 0.18756,-0.0695 -0.0347,-0.51407 -0.49323,0.0417 -0.22925,0.15977 -0.15979,0.24315 -0.0695,0.61132 0.17367,0.27789 0.16673,0.11109 z"
         style="fill:#c5b67f;fill-opacity:1;stroke:none;stroke-width:0.31438318px;stroke-linecap:butt;stroke-linejoin:miter;stroke-opacity:1" />
      <ellipse
         ry="0.18791042"
         rx="0.16325919"
         cy="131.49339"
         cx="128.13841"
         id="path5257"
         style="opacity:1;fill:#0b0b0b;fill-opacity:1;stroke:none;stroke-width:0.2507813;stroke-opacity:1" />
      <path
         sodipodi:nodetypes="ccccccccccccccccccccccccccccccccccccccccccccccccccccccccccccccccccccccccccccccccccccccccccccccccccccccccccccccccccccccccc"
         inkscape:connector-curvature="0"
         id="path5210-1"
         d="m 72.087529,69.750452 0.982444,2.241209 1.796042,2.947344 2.763133,3.76093 2.624981,3.070148 3.638127,3.699522 3.592072,3.285059 3.745578,3.024102 6.631516,5.173201 4.160058,3.361813 3.82235,3.73022 2.79381,3.19296 2.21053,3.31576 1.28945,2.82454 0.87499,2.60962 0.18422,1.13595 3.42321,0.53729 1.55042,0.47586 1.38157,0.53727 -0.046,-0.29165 -0.18421,-0.41447 -0.52194,-0.55263 -1.19735,-0.95175 -1.78069,-0.90569 -0.89034,-0.35306 0.42981,-2.17982 1.53508,-4.06794 1.94954,-4.03725 1.71929,-2.57893 1.2434,-1.67321 1.79605,-1.857449 1.73463,-1.765336 1.85744,-1.657875 4.29821,-3.146906 2.97805,-1.734634 2.01094,-1.135948 3.54602,-1.888142 4.58988,-2.563571 1.98023,0.660078 -5.15784,3.192948 -3.82234,2.287263 -1.99559,1.335513 -1.81139,1.320174 -1.93419,1.703927 -1.81139,1.765331 -1.67323,2.149109 -1.04385,1.642528 -1.16666,1.99559 -1.13596,2.34867 -0.90568,2.67101 -0.58333,2.24123 -0.73684,3.08549 -0.24561,3.51532 -0.0307,2.11842 0.18421,2.99339 -1.65789,-0.76755 -2.99339,-0.92105 -3.73023,-0.64472 0.61402,1.36621 1.8728,2.79385 -1.32017,0.0921 -2.42541,0.78289 -1.81138,0.78288 -1.64254,0.69079 -0.27631,0.61402 1.2127,0.0921 1.65789,0.36842 2.93198,1.04385 1.36622,0.61402 -2.60963,1.05921 -2.36401,1.87279 -0.38378,0.55263 4.26752,0.90569 -3.99118,0.50657 -2.7785,0.19956 -2.28726,0.0921 -0.0615,0.56796 5.06576,1.05921 1.25876,2.50217 1.04385,2.68639 0.53727,2.19514 -2.45611,0.27633 -2.41006,-0.21492 -2.70173,-1.1206 3.53066,0.18422 -0.30702,-0.49123 -3.19295,-0.87501 -3.08549,-1.35086 -2.99339,-2.13374 -0.19957,-0.53729 3.08551,0.8443 3.88372,0.69079 1.12062,0.15349 -0.0153,-0.33772 -2.24121,-1.18201 -1.9649,-1.44294 -2.19515,-1.94957 -1.91885,-2.28725 2.74778,-1.50436 2.64034,-2.48684 1.2127,-1.65787 1.21272,-2.76315 0.42981,-2.48679 -0.0615,-2.64034 -0.3991,-2.71707 -0.875,-3.16228 -1.44297,-2.85523 -2.22586,-3.00874 -4.282842,-4.03725 -3.85304,-3.100851 -3.162255,-2.317962 -3.410964,-2.537883 -2.322887,-1.780157 -2.952453,-2.518266 -3.017579,-3.234679 -2.67024,-3.364932 -1.606485,-2.583391 -1.30255,-2.605113 -1.324271,-2.930745 -0.998627,-2.952453 z"
         style="fill:#7a002b;fill-opacity:1;stroke:none;stroke-width:0.31438318px;stroke-linecap:butt;stroke-linejoin:miter;stroke-opacity:1" />
    </g>
  </g>
</svg>
